<svg version="1.1" id="Layer_1" xmlns="http://www.w3.org/2000/svg" xmlns:xlink="http://www.w3.org/1999/xlink" x="0px" y="0px"
	 width="100%" viewBox="0 0 577 433" enable-background="new 0 0 577 433" xml:space="preserve">
<path fill="#010101" opacity="1.000000" stroke="none" 
	d="
M344.000000,434.000000 
	C230.666687,434.000000 117.833366,433.980042 5.000178,434.095306 
	C1.576393,434.098785 0.902404,433.423981 0.905083,430.000031 
	C1.015930,288.333466 1.015917,146.666809 0.905122,5.000258 
	C0.902444,1.576867 1.575860,0.903551 4.999867,0.905473 
	C194.666443,1.011920 384.333069,1.011907 573.999634,0.905541 
	C577.422546,0.903621 578.097656,1.575317 578.094971,4.999751 
	C577.984070,146.666290 577.984131,288.332947 578.094849,429.999512 
	C578.097534,433.422363 577.425598,434.101898 574.000244,434.096252 
	C497.500336,433.970673 421.000153,434.000000 344.000000,434.000000 
z"/>
<path fill="#F1F1F1" opacity="1.000000" stroke="none" 
	d="
M315.676788,189.295609 
	C303.914337,186.377930 297.934326,178.769745 295.976501,167.559143 
	C295.833801,166.741989 295.526398,165.954910 295.352692,165.141632 
	C294.868439,162.873947 293.911530,160.804367 291.333679,160.742264 
	C288.680939,160.678345 287.774872,162.765305 287.344360,165.055328 
	C287.221527,165.708740 287.002838,166.343552 286.846466,166.991318 
	C283.036713,182.769135 275.661377,189.022568 259.504883,190.382492 
	C254.963989,190.764725 250.480743,190.369476 246.078278,189.540329 
	C234.340118,187.329620 232.310425,185.106323 230.176743,173.239182 
	C229.646530,170.290375 229.049377,167.353302 228.454285,164.416656 
	C228.265640,163.485733 228.280518,162.176453 226.956940,162.234131 
	C225.186768,162.311279 225.795288,163.827377 225.673462,164.882385 
	C225.516174,166.244446 226.776428,167.821289 224.618362,169.320938 
	C220.425629,161.506577 216.714279,153.646545 215.376099,144.910416 
	C214.267258,137.671448 213.446289,130.382401 212.718582,123.093491 
	C212.334824,119.249359 211.326996,116.106758 207.786560,113.870857 
	C204.845978,112.013786 203.246353,109.293045 206.272171,106.055435 
	C207.180038,105.084030 207.133987,103.971352 207.290253,102.827675 
	C207.971802,97.839371 210.077057,93.682053 214.177734,90.555466 
	C218.072586,87.585831 220.483704,83.296700 223.552567,79.587997 
	C226.458618,76.076057 228.712234,71.807617 233.858124,70.664383 
	C234.956146,70.420441 235.844193,68.557556 236.538284,67.282303 
	C240.120865,60.699986 244.596207,55.146423 252.129333,52.817539 
	C253.054337,52.531570 253.869568,51.852192 254.698395,51.299236 
	C267.140350,42.998474 281.431580,40.379883 295.781982,39.982975 
	C313.637085,39.489124 328.971832,45.890739 339.488312,61.429813 
	C342.936859,66.525330 347.522552,69.810417 353.698395,72.133171 
	C359.697235,74.389366 366.726318,78.833023 368.717743,84.711174 
	C370.764191,90.751617 372.381927,97.317070 374.046143,103.674919 
	C376.035980,111.276726 374.189331,118.284172 372.952820,125.731339 
	C370.582428,140.007156 362.901184,152.030167 358.196991,165.270706 
	C358.068420,165.632492 357.464142,165.825256 356.640411,166.410172 
	C356.399048,164.766846 356.202026,163.425323 356.024261,162.214996 
	C354.547668,161.832001 354.311035,162.655762 354.148773,163.460480 
	C353.063477,168.843399 351.842560,174.205948 350.988068,179.625946 
	C350.431732,183.154984 348.603729,185.175964 345.421570,186.591782 
	C335.922546,190.818130 326.121979,191.263214 315.676788,189.295609 
z"/>
<path fill="#FAFAFA" opacity="1.000000" stroke="none" 
	d="
M346.661407,325.722595 
	C346.394592,326.519379 346.247406,326.939331 346.137512,327.695679 
	C346.004150,329.929779 345.504364,331.736481 344.504395,333.761475 
	C344.168182,334.407959 344.003296,334.745239 343.828796,335.366760 
	C343.039459,337.490448 340.810913,336.207336 339.605408,337.803772 
	C339.322449,338.517242 339.221558,338.948517 339.172180,339.710693 
	C338.558167,343.215302 337.980988,346.412994 336.496216,349.741028 
	C336.148834,350.415405 335.985809,350.763184 335.824463,351.402588 
	C335.578613,352.339386 335.114838,352.861694 334.672607,353.788452 
	C332.029022,357.810486 329.854950,361.775299 326.556885,364.880341 
	C325.133240,366.220642 324.284210,368.861847 321.378540,367.460449 
	C321.044769,367.299469 320.047699,367.836151 319.792786,368.292267 
	C316.621826,373.965332 311.126740,377.401245 306.794739,381.949219 
	C304.667358,384.182678 303.064545,386.643402 304.108276,389.999268 
	C304.735718,392.016693 304.042145,392.689026 301.869446,392.312744 
	C286.209015,389.600677 272.297058,383.698242 262.120117,370.855133 
	C260.590240,368.924469 258.998169,367.459534 256.460052,366.467407 
	C252.244431,364.819611 250.653183,360.368683 248.427643,356.318573 
	C248.080978,355.389099 247.833069,354.773499 247.435867,353.876221 
	C247.113785,352.321655 246.825821,351.098724 246.393433,349.527435 
	C246.151703,348.415710 245.849960,347.733185 245.425293,346.816162 
	C245.411209,346.189758 245.398239,345.846039 245.283890,345.263275 
	C245.105988,344.579742 245.035934,344.134277 244.923538,343.353088 
	C244.841187,342.290710 244.807617,341.563019 244.671478,340.485016 
	C243.459381,338.716919 244.912888,336.318512 242.386505,335.325653 
	C241.807556,335.297058 241.566376,335.256470 240.958466,335.205017 
	C239.007980,331.844727 237.847458,328.348083 236.915588,324.388031 
	C236.822250,323.294281 236.776230,322.568054 236.615326,321.494690 
	C235.606003,317.375793 236.024109,313.567291 236.304291,309.304993 
	C236.553284,308.128906 236.680054,307.413910 236.784653,306.335388 
	C237.320648,302.447540 238.112183,298.976959 239.275803,295.199677 
	C240.044739,292.450653 241.193619,290.795441 244.471786,291.652954 
	C250.108002,290.985413 255.364151,292.365509 260.602112,291.205017 
	C267.937225,289.579926 274.321747,286.543549 278.911865,279.864868 
	C279.320099,279.459625 279.486725,279.306732 279.910767,278.946228 
	C280.671997,278.364288 281.197357,278.017914 281.858826,277.371857 
	C282.184967,277.006439 282.311798,276.858673 282.629303,276.492432 
	C283.206116,275.849274 283.618683,275.449341 284.176331,274.793915 
	C284.701874,274.099030 285.027405,273.614136 285.481995,272.844971 
	C285.892792,272.236877 286.162933,271.908691 286.691284,271.361847 
	C287.288269,270.836578 287.675720,270.592102 288.425049,270.267731 
	C293.077881,269.299957 294.477661,273.198181 297.290344,275.479034 
	C304.029633,285.575134 313.407776,290.227539 325.258606,291.153870 
	C327.269501,292.413818 328.973572,293.205658 331.147400,291.461853 
	C332.176422,291.183258 332.856598,291.254852 333.718445,291.895416 
	C336.108704,292.694244 338.352264,291.269562 340.801575,292.700134 
	C342.125214,294.187134 342.764313,295.638336 343.560211,297.304138 
	C343.743439,298.526276 343.962311,299.414001 344.348572,300.601685 
	C345.139343,302.661163 345.964478,304.363800 346.065308,306.629333 
	C346.142700,307.725922 346.186615,308.473175 346.397034,309.558228 
	C347.222961,311.610077 346.848785,313.432587 347.206116,315.559021 
	C347.226929,316.721954 347.160309,317.513397 347.212097,318.687531 
	C346.699463,321.122894 347.249725,323.278961 346.661407,325.722595 
z"/>
<path fill="#FBFBFB" opacity="1.000000" stroke="none" 
	d="
M287.098145,272.218079 
	C286.984039,272.537018 286.663086,272.821564 286.592834,272.902710 
	C286.154297,273.155579 285.804016,273.358063 285.312775,273.853851 
	C284.278046,274.704620 283.757935,275.558929 283.181549,276.749573 
	C282.989655,276.985535 283.000000,277.000000 282.992310,276.995300 
	C282.466583,277.534210 281.924408,278.053925 281.197388,278.786774 
	C280.995148,278.982666 280.997559,278.997559 280.989807,278.996185 
	C276.560852,281.481689 272.906311,285.127380 268.375000,287.425812 
	C265.916168,288.672974 263.431458,290.005890 260.196228,289.968048 
	C258.624725,289.656677 257.388702,289.330292 256.012451,290.472900 
	C255.105881,290.830750 254.469604,290.870148 253.512909,290.678040 
	C252.120667,289.900024 251.021988,289.289612 249.340881,289.925323 
	C247.764221,290.143372 246.569824,290.080994 245.444580,288.906921 
	C244.340286,287.850800 243.322357,287.159760 242.173035,286.187744 
	C230.665207,275.748291 227.925446,263.239105 231.869186,248.855255 
	C232.601227,246.185303 233.849701,243.934723 236.044281,242.267181 
	C236.837814,241.664246 237.817963,241.199982 238.778229,241.955872 
	C239.719818,242.697083 239.557159,243.702026 239.166473,244.671524 
	C238.917709,245.288834 238.499817,245.827438 238.228455,246.433502 
	C236.477905,250.343231 236.081253,254.065781 239.438202,257.471222 
	C242.798187,260.879791 246.274231,262.837769 251.395004,261.040955 
	C258.089874,258.691742 262.332062,253.733047 266.696045,248.176758 
	C267.686188,246.952805 268.434601,246.028107 269.458832,244.982880 
	C270.525879,244.531128 271.045471,243.884018 271.716583,242.983765 
	C273.195465,240.768677 275.072815,239.603653 277.655975,238.985764 
	C279.285522,238.742447 280.600159,238.668884 282.213440,238.317749 
	C283.038696,238.251678 283.608826,238.171173 283.985718,238.424072 
	C288.675476,241.570877 293.310577,241.028366 298.282837,238.292664 
	C300.180634,238.601974 301.765076,238.672638 303.661682,238.959686 
	C306.821289,239.069717 308.376678,241.154968 310.441650,243.062851 
	C314.934113,245.788712 316.678955,250.644867 320.634827,253.882904 
	C320.821503,254.167938 320.992676,254.006714 320.912109,254.092316 
	C322.284607,255.039520 323.251221,256.455963 324.842041,257.627686 
	C325.106598,257.793182 325.358887,258.083099 325.529785,258.170959 
	C330.122681,260.882446 334.643127,262.423248 339.854736,259.317017 
	C340.736572,258.658569 341.331299,258.202789 342.072327,257.503113 
	C345.117920,253.368042 345.468658,249.410324 342.365295,245.066238 
	C341.713348,244.022430 341.224976,243.279144 340.601013,242.229858 
	C340.719025,241.558060 341.022827,241.239441 341.664856,240.808960 
	C343.742249,240.657516 345.463593,240.821945 346.934784,242.651215 
	C354.495056,254.293701 353.178711,265.816559 347.459442,277.755737 
	C347.238464,278.116547 346.963898,278.395355 346.875671,278.569977 
	C346.551331,279.513092 345.923920,280.001678 345.293091,280.842987 
	C343.926331,282.299744 342.723297,283.518402 341.335449,285.001221 
	C339.061676,286.608490 337.212799,288.349335 334.459900,289.242676 
	C333.732727,289.561920 333.320557,289.752930 332.583557,290.048157 
	C331.599792,290.319794 330.935791,290.467682 329.956055,290.760010 
	C328.501709,291.123199 327.367737,291.167816 325.889374,290.937714 
	C324.673431,290.736328 323.795441,290.545258 322.546082,290.743347 
	C312.966309,288.448730 305.297394,283.424835 298.194550,276.761261 
	C296.488068,274.344727 295.686554,271.780396 293.726807,269.895996 
	C292.026428,268.260925 290.500885,267.624573 288.584534,270.052582 
	C287.735748,270.663055 287.408081,271.235657 287.098145,272.218079 
z"/>
<path fill="#F3F3F3" opacity="1.000000" stroke="none" 
	d="
M312.325623,243.324356 
	C311.884399,241.928360 310.804962,240.295181 311.136963,239.923828 
	C314.117218,236.590134 315.579193,233.031799 315.693390,228.372894 
	C315.729675,226.892319 316.538269,225.930496 315.292023,224.247437 
	C311.361298,218.938995 314.260864,212.179703 320.827179,210.979752 
	C325.955017,210.042679 331.116333,211.037140 336.240723,211.207748 
	C339.528381,211.317215 338.219299,214.039978 336.998138,215.425018 
	C336.193207,216.338028 335.103455,216.540573 335.017029,218.294266 
	C334.673553,225.262268 332.236969,227.498596 325.217407,227.945053 
	C324.092163,228.016617 322.967621,228.098785 321.488007,228.200424 
	C323.230835,231.119125 325.758179,230.027847 327.809082,230.092316 
	C334.354248,230.297989 337.070587,231.867767 337.731232,236.170364 
	C338.450470,240.854431 335.310852,244.632965 329.442169,246.253998 
	C325.670502,247.295822 321.880463,247.099014 317.283813,246.739014 
	C316.031586,246.863602 315.578949,246.789688 314.827820,246.487518 
	C313.630737,245.575821 312.743896,244.822830 312.325623,243.324356 
z"/>
<path fill="#F7F7F7" opacity="1.000000" stroke="none" 
	d="
M279.148712,236.322678 
	C281.125916,225.523849 285.360199,215.611847 288.353485,205.315872 
	C289.171356,202.502609 291.639893,203.932343 293.409302,203.569397 
	C298.957092,202.431381 301.554779,204.697372 302.978760,210.234467 
	C305.183990,218.809265 308.345184,227.138214 311.264343,236.071228 
	C309.133331,236.071228 307.503510,236.071228 305.451782,236.156342 
	C302.074036,237.678192 300.990204,235.447784 299.535767,233.599564 
	C297.163422,230.584915 292.327118,230.399841 290.245270,233.580002 
	C287.367188,237.976486 283.683563,237.914001 279.148712,236.322678 
z"/>
<path fill="#FEFEFE" opacity="1.000000" stroke="none" 
	d="
M194.734695,217.003052 
	C194.734741,213.839874 195.002579,211.142715 194.672470,208.520859 
	C194.169067,204.522675 195.696426,203.473587 199.562729,203.635284 
	C202.539459,203.759766 203.950211,204.349213 203.431870,207.511887 
	C203.299026,208.322449 203.411438,209.173264 203.411804,210.005585 
	C203.414139,215.339111 207.141403,217.708130 212.310638,215.765457 
	C213.538162,215.304138 213.649902,214.477066 213.657547,213.461807 
	C213.670090,211.797241 213.824722,210.113617 213.631729,208.471848 
	C213.230637,205.059906 213.946121,203.572021 218.037918,203.568771 
	C222.189453,203.565491 222.515228,205.189468 222.432678,208.523727 
	C222.234970,216.509109 222.096054,224.515839 222.480209,232.487595 
	C222.681168,236.657516 220.355347,236.073547 217.853516,236.099869 
	C215.465057,236.124969 213.033340,236.471039 213.628281,232.712250 
	C213.859589,231.250778 213.457199,229.686813 213.703125,228.230255 
	C214.458405,223.756866 212.652710,222.663055 208.289291,222.760529 
	C204.425247,222.846878 202.767120,223.705383 203.373306,227.704742 
	C203.595306,229.169418 203.217972,230.726273 203.449890,232.187790 
	C204.009598,235.715149 202.258942,236.191635 199.247650,236.170120 
	C196.155334,236.148026 194.319046,235.901443 194.641235,231.977524 
	C195.034973,227.182404 194.734802,222.330292 194.734695,217.003052 
z"/>
<path fill="#FAFAFA" opacity="1.000000" stroke="none" 
	d="
M357.571350,214.404114 
	C357.611389,208.597900 361.642761,211.696198 363.820068,211.144058 
	C366.464386,210.473495 366.136108,212.719604 366.141327,214.335831 
	C366.160156,220.166779 366.203430,225.998718 366.109009,231.828186 
	C366.086639,233.208099 366.997864,235.298798 365.285675,235.838516 
	C363.510132,236.398239 360.635742,236.928818 359.677948,235.290741 
	C358.227631,232.810226 357.546753,234.063416 356.063416,234.923370 
	C348.797363,239.135834 342.097107,235.463043 341.824066,227.157791 
	C341.698212,223.330078 342.049561,219.473602 341.725983,215.669189 
	C341.416626,212.031677 342.399353,210.886765 346.273102,210.885773 
	C350.175079,210.884781 350.567291,212.464111 350.398376,215.590210 
	C350.210175,219.073608 350.346039,222.584488 350.528046,226.073639 
	C350.617188,227.782913 351.260010,229.547287 353.343353,229.611450 
	C355.422821,229.675491 356.885895,228.436615 357.047943,226.319962 
	C357.339661,222.509125 357.408630,218.681213 357.571350,214.404114 
z"/>
<path fill="#F3F3F3" opacity="1.000000" stroke="none" 
	d="
M244.052200,225.940842 
	C241.433670,225.940781 239.289932,225.940781 236.504379,225.940781 
	C238.908936,231.898026 243.283676,230.005417 247.112259,229.743591 
	C248.287552,229.663208 250.142273,227.507263 250.424881,230.465332 
	C250.595963,232.256149 251.307220,234.390274 248.647415,235.549683 
	C243.817596,237.654968 235.175751,236.705032 231.538193,233.383911 
	C227.854767,230.020905 226.685959,223.004471 228.899689,217.544403 
	C231.281937,211.668716 237.661499,209.122543 244.892517,211.161423 
	C249.832748,212.554398 252.965546,218.230835 252.147125,223.930145 
	C251.935150,225.406372 251.446548,225.981033 250.018677,225.948212 
	C248.189026,225.906158 246.357651,225.939850 244.052200,225.940842 
z"/>
<path fill="#F3F3F3" opacity="1.000000" stroke="none" 
	d="
M391.034515,225.162827 
	C392.191040,232.506927 390.012665,235.517334 383.130920,236.410004 
	C381.498260,236.621796 379.805878,236.621307 378.163879,236.469986 
	C371.461456,235.852249 371.405975,235.739899 372.340973,228.694336 
	C374.584595,229.164368 376.800659,229.776886 379.057617,230.045441 
	C380.396667,230.204773 382.428528,230.878189 382.895050,229.023590 
	C383.302063,227.405533 381.267944,227.278397 380.173431,226.700516 
	C378.854706,226.004272 377.443237,225.483856 376.123444,224.789322 
	C373.003967,223.147751 371.519653,220.599319 371.973297,217.022705 
	C372.450073,213.263809 375.038391,211.754868 378.348633,211.035461 
	C381.498169,210.350952 384.685394,210.417847 387.718445,211.388382 
	C389.084045,211.825378 391.886597,211.588821 390.606903,214.699249 
	C389.738403,216.810226 389.176788,218.730881 386.076904,217.251526 
	C384.457001,216.478424 382.346558,215.703903 380.156738,217.371887 
	C383.154694,220.882355 388.844666,220.348969 391.034515,225.162827 
z"/>
<path fill="#F3F3F3" opacity="1.000000" stroke="none" 
	d="
M265.962219,228.145264 
	C269.464508,230.744446 272.574280,228.965775 275.696198,228.132538 
	C277.315338,234.122025 276.821106,235.158401 271.632660,236.157028 
	C266.631165,237.119675 261.754272,236.724960 258.475159,232.380188 
	C254.838486,227.561691 254.975723,221.960022 257.470032,216.756470 
	C259.814789,211.864883 264.486694,210.424896 269.647430,210.664871 
	C271.457336,210.749039 273.267639,211.149475 275.042633,211.557999 
	C276.514801,211.896835 277.639099,212.794891 276.518921,214.375656 
	C275.545776,215.748947 276.443756,218.599243 273.163971,218.265610 
	C265.089813,217.444321 263.400299,219.690750 265.962219,228.145264 
z"/>
<path fill="#D2D2D2" opacity="1.000000" stroke="none" 
	d="
M266.617126,247.972107 
	C263.487457,256.240601 256.844208,260.990845 248.393005,262.775513 
	C243.525803,263.803314 239.944794,260.107086 237.235413,256.451813 
	C235.002853,253.439804 235.466995,249.888260 236.970993,246.546387 
	C237.550919,245.257736 238.913589,244.272003 238.454483,242.191010 
	C235.317322,243.126053 233.947327,245.490433 233.129608,248.138626 
	C229.035492,261.397491 231.005310,273.364716 240.927414,283.567963 
	C241.380188,284.033569 241.662292,284.665100 242.032761,285.563049 
	C235.871506,282.359406 232.988632,276.481689 231.102432,270.038849 
	C228.895218,262.499542 229.212601,254.913635 231.772980,247.511902 
	C232.865997,244.352112 234.536682,241.409119 238.240936,240.536041 
	C239.312271,240.283539 240.511917,239.433990 241.443222,240.651703 
	C242.430237,241.942276 241.208115,242.720566 240.535889,243.620972 
	C237.599228,247.554321 235.637695,251.607422 238.976059,256.332794 
	C242.278168,261.006805 247.198395,262.283936 252.553101,260.034149 
	C258.478119,257.544739 262.227844,252.641983 266.617126,247.972107 
z"/>
<path fill="#B1B1B1" opacity="1.000000" stroke="none" 
	d="
M223.290131,243.317841 
	C212.647461,244.816528 202.227142,243.824249 191.829788,244.150848 
	C190.354370,244.197189 189.152130,243.428223 189.219543,241.801727 
	C189.287704,240.157211 190.602493,239.662735 192.040253,239.661224 
	C201.816772,239.650986 211.593552,239.637146 221.369736,239.701431 
	C223.533447,239.715668 224.315674,240.936951 223.290131,243.317841 
z"/>
<path fill="#BFBFBF" opacity="1.000000" stroke="none" 
	d="
M381.640381,244.144104 
	C374.388153,244.156845 367.589233,244.166428 360.790344,244.184250 
	C359.247711,244.188293 357.545532,244.199203 357.393341,242.188736 
	C357.221008,239.912506 358.983551,239.538712 360.749237,239.532150 
	C368.377197,239.503799 376.005310,239.519394 383.633362,239.518356 
	C385.658569,239.518082 388.252808,239.472580 388.247955,242.019470 
	C388.242371,244.932190 385.436554,244.006409 383.585815,244.141678 
	C383.091034,244.177841 382.591248,244.145050 381.640381,244.144104 
z"/>
<path fill="#1A1A1A" opacity="1.000000" stroke="none" 
	d="
M278.614685,236.208084 
	C281.171204,236.030914 283.485260,235.957779 285.794983,236.027954 
	C287.374298,236.075943 288.423492,235.456635 288.519470,233.898819 
	C288.758331,230.020920 291.167816,229.713715 294.309845,229.853653 
	C297.586823,229.999588 301.156830,229.121780 301.284668,234.237579 
	C301.329590,236.034973 302.874481,236.052368 304.633881,236.147141 
	C304.817535,236.777588 304.605194,237.313705 304.115479,237.951935 
	C302.684570,239.248825 301.154480,238.894577 299.389191,239.087341 
	C298.866486,239.122299 298.651093,239.047867 298.545959,239.124527 
	C293.231659,243.001160 287.974548,242.549835 282.379425,238.953110 
	C280.848114,238.945358 279.659576,239.136383 278.306915,238.282196 
	C278.142700,237.503220 278.256531,236.938202 278.614685,236.208084 
z"/>
<path fill="#E8E8E8" opacity="1.000000" stroke="none" 
	d="
M219.386261,184.654846 
	C221.299973,184.901535 223.611145,184.013123 223.562820,186.618988 
	C223.521637,188.839676 221.452423,188.288040 220.080185,188.294998 
	C211.116898,188.340485 202.153198,188.333374 193.189789,188.302231 
	C191.578659,188.296631 189.358856,188.549622 189.471985,186.188171 
	C189.570129,184.140015 191.690903,184.687576 193.061798,184.680130 
	C201.693100,184.633179 210.324753,184.655106 219.386261,184.654846 
z"/>
<path fill="#E8E8E8" opacity="1.000000" stroke="none" 
	d="
M363.428589,184.654297 
	C370.353546,184.655090 376.827393,184.581055 383.297394,184.705475 
	C385.038788,184.738968 388.013916,183.678055 387.982239,186.600693 
	C387.955811,189.038116 385.162445,188.267822 383.484436,188.285187 
	C376.017120,188.362457 368.547943,188.362381 361.080902,188.271057 
	C359.787842,188.255264 357.600372,189.204666 357.398346,187.122604 
	C357.195099,185.028015 359.229340,184.703568 360.984650,184.663513 
	C361.648163,184.648376 362.312195,184.656494 363.428589,184.654297 
z"/>
<path fill="#B1B1B1" opacity="1.000000" stroke="none" 
	d="
M204.349396,261.092163 
	C203.287704,265.317810 201.089767,265.416321 197.890198,263.335144 
	C199.511902,259.924377 198.352036,257.342102 195.661346,255.094635 
	C198.148376,257.333313 193.640488,260.475769 196.829681,262.965271 
	C191.035812,265.820587 189.718597,264.973297 189.914886,258.808319 
	C189.962311,257.318542 189.879654,255.822937 189.967621,254.336563 
	C190.069992,252.606430 189.358093,250.511002 191.726746,249.638428 
	C194.052155,248.781754 195.934738,249.429672 197.762970,251.471100 
	C198.564087,251.350708 198.985397,251.312027 199.720505,251.494965 
	C200.190811,251.750092 200.358398,251.887695 200.729645,252.278214 
	C201.524673,253.429092 202.058533,254.376770 203.307999,255.152740 
	C204.626511,256.175568 205.010284,257.302216 205.082581,258.948425 
	C204.970505,259.839417 204.771713,260.305084 204.349396,261.092163 
z"/>
<path fill="#454545" opacity="1.000000" stroke="none" 
	d="
M245.290283,288.928589 
	C246.642593,288.699615 247.926971,288.857361 249.601730,289.027954 
	C250.849197,289.027283 251.709457,288.990356 252.795547,289.533508 
	C253.792404,289.732056 254.504761,289.781281 255.564880,289.740021 
	C256.671478,289.218475 257.482452,288.987610 258.679932,289.005676 
	C265.805420,288.353027 271.216736,284.709381 276.448120,280.760040 
	C277.740509,279.784363 278.739960,278.425934 280.747040,278.627777 
	C276.733124,287.738190 268.584015,290.464569 260.013763,292.241089 
	C255.280975,293.222137 250.410324,292.782501 245.250809,291.871399 
	C244.998734,290.866241 245.110535,290.090790 245.290283,288.928589 
z"/>
<path fill="#2D2D2D" opacity="1.000000" stroke="none" 
	d="
M331.864227,289.747498 
	C332.523407,289.474518 332.923950,289.271790 333.664917,289.057190 
	C334.134430,289.206177 334.263580,289.367004 334.196350,289.766907 
	C333.994659,290.488373 333.989349,290.970764 333.962006,291.814392 
	C333.353394,292.391205 332.766754,292.606842 331.858948,292.834412 
	C329.852325,292.993042 328.165039,293.023712 325.970245,292.890869 
	C313.231140,292.248932 303.926758,286.341095 296.474640,276.549072 
	C296.684326,276.007263 296.997772,275.809906 297.859863,275.700195 
	C301.995850,277.242767 304.198273,280.505127 307.330658,282.618530 
	C312.003021,285.770966 316.854401,288.255981 322.653137,289.719910 
	C323.420227,289.953674 323.862183,290.009888 324.632629,290.128571 
	C326.370117,290.134125 327.778442,290.082306 329.607666,290.075439 
	C330.560608,290.052521 331.089905,289.970734 331.864227,289.747498 
z"/>
<path fill="#B1B1B1" opacity="1.000000" stroke="none" 
	d="
M383.741730,249.365417 
	C387.401123,249.055603 387.703186,251.673904 387.625153,253.895462 
	C387.508850,257.206390 388.971313,260.968506 385.825623,263.677094 
	C384.038208,265.216156 382.880676,263.526947 381.432159,262.240662 
	C380.748993,261.740753 380.425446,261.379852 380.090271,260.569580 
	C379.707947,258.735504 379.791382,257.259064 380.079010,255.421021 
	C380.665588,252.882614 381.288544,250.771042 383.741730,249.365417 
z"/>
<path fill="#575757" opacity="1.000000" stroke="none" 
	d="
M347.576385,278.045654 
	C349.888336,271.094635 351.868774,264.001862 351.162079,256.320221 
	C350.740814,251.740829 349.777191,247.468536 347.216827,243.253738 
	C351.781982,245.266815 351.806702,250.069244 352.492035,254.066467 
	C353.931519,262.462616 352.554016,270.601929 347.576385,278.045654 
z"/>
<path fill="#BFBFBF" opacity="1.000000" stroke="none" 
	d="
M218.955612,259.565063 
	C219.224030,263.422272 216.741196,264.878479 214.194412,264.909393 
	C211.072006,264.947418 211.937088,261.946716 211.845520,259.955139 
	C211.755142,257.989471 211.817642,256.016815 211.804596,253.614471 
	C211.300629,251.660828 212.207184,250.807175 213.647339,249.900543 
	C216.407272,249.338272 217.890656,250.482544 218.830261,252.961578 
	C218.547119,255.279755 219.251465,257.201263 218.955612,259.565063 
z"/>
<path fill="#BFBFBF" opacity="1.000000" stroke="none" 
	d="
M370.305237,263.790863 
	C369.586731,264.064087 369.136566,264.107269 368.384674,263.989380 
	C366.831177,263.396240 366.019531,262.505005 365.343323,260.977539 
	C365.015289,259.872955 364.992401,259.116058 365.242340,257.989380 
	C365.898773,256.628876 366.764526,256.237061 368.210205,256.354126 
	C369.257507,256.773895 369.438049,257.440002 369.681885,258.401550 
	C370.006439,259.025391 368.982544,259.153717 369.724762,259.274353 
	C369.713928,257.298065 369.083099,255.771545 367.846588,254.150970 
	C366.945312,253.260925 366.383240,252.559875 366.778748,251.259796 
	C366.990143,250.986710 367.000000,250.999390 366.993896,250.995544 
	C367.484100,250.514236 367.983124,250.039719 368.775513,249.376328 
	C369.805267,249.349747 370.569489,249.542435 371.591370,249.904907 
	C375.527863,252.363541 372.171417,256.423553 374.292023,259.467041 
	C374.594879,260.252319 374.649719,260.725708 374.506653,261.552460 
	C373.475159,263.260773 371.765839,262.817291 370.305237,263.790863 
z"/>
<path fill="#2D2D2D" opacity="1.000000" stroke="none" 
	d="
M197.002090,263.334320 
	C194.574722,262.069855 189.955399,261.631409 195.089325,257.832062 
	C195.619522,257.439667 195.544342,256.532562 194.898010,256.112854 
	C188.966370,252.260971 195.422684,253.161301 196.530045,251.226395 
	C197.185806,254.118729 197.366699,256.508026 199.736267,257.752228 
	C200.901474,258.364075 202.256195,259.278381 201.748199,260.803680 
	C200.993011,263.071289 199.600784,260.718964 198.491226,260.994507 
	C197.671051,261.198181 197.473557,261.646698 197.557892,262.786133 
	C197.434464,263.330872 197.268173,263.388885 197.002090,263.334320 
z"/>
<path fill="#999999" opacity="1.000000" stroke="none" 
	d="
M383.666077,249.082336 
	C383.099091,251.016403 382.176575,252.902725 380.931091,254.967621 
	C380.017456,255.947876 379.258392,256.476562 377.891663,256.582825 
	C377.309204,256.481415 377.085022,256.398193 376.582306,256.090515 
	C375.129059,254.231613 372.779633,253.190308 373.902405,250.336060 
	C375.553467,249.022156 377.394104,247.990707 378.579071,249.547729 
	C380.756195,252.408356 381.811279,249.679001 383.666077,249.082336 
z"/>
<path fill="#999999" opacity="1.000000" stroke="none" 
	d="
M204.514282,261.161041 
	C204.169693,260.849884 204.110748,260.242371 204.107330,259.179810 
	C206.055206,257.448242 205.531799,255.169922 206.541824,253.156311 
	C207.317169,252.381638 207.995773,252.224213 209.363129,252.640259 
	C209.869644,255.917511 209.752274,258.838867 209.630341,261.760040 
	C209.556046,263.539490 209.450668,265.284454 207.000031,263.308167 
	C207.158676,262.806183 207.279404,262.634003 207.190948,262.225769 
	C206.445282,261.244629 206.424728,259.498993 204.514282,261.161041 
z"/>
<path fill="#999999" opacity="1.000000" stroke="none" 
	d="
M366.639160,251.061188 
	C367.205994,251.777237 367.215942,252.709854 368.621857,252.930756 
	C369.829468,254.034454 369.409973,255.274078 369.052460,256.766876 
	C367.867157,257.045258 366.980682,256.841003 366.113434,257.860962 
	C364.853394,258.378387 364.378174,257.593292 363.648193,256.675659 
	C363.136292,255.858582 362.993439,255.230331 362.596436,254.367325 
	C361.932434,251.917816 358.843231,255.532104 358.869507,252.219971 
	C360.242767,250.700226 361.840881,250.795212 363.821838,250.801392 
	C364.902649,250.867188 365.595398,251.001419 366.639160,251.061188 
z"/>
<path fill="#BFBFBF" opacity="1.000000" stroke="none" 
	d="
M362.296936,254.435791 
	C363.343262,254.197174 363.932892,254.617844 364.047363,255.890167 
	C364.925049,257.629913 364.448608,259.252075 364.800842,261.103760 
	C364.890839,262.145996 364.792511,262.819977 364.203064,263.695770 
	C358.123352,263.962769 357.724945,263.325073 360.397125,258.306580 
	C361.013428,257.149109 361.565704,255.957520 362.296936,254.435791 
z"/>
<path fill="#2D2D2D" opacity="1.000000" stroke="none" 
	d="
M373.800293,250.099686 
	C373.949127,251.691879 373.079285,253.526703 376.126404,253.156052 
	C377.104858,253.037033 377.021149,254.258621 376.887085,255.468491 
	C377.125763,257.822205 376.366486,259.312744 374.442902,260.549164 
	C371.471466,260.160828 372.637665,258.069122 372.510986,256.658569 
	C372.335632,254.705856 372.979675,252.680313 371.895050,250.439056 
	C372.369537,250.072556 372.890076,250.070389 373.800293,250.099686 
z"/>
<path fill="#575757" opacity="1.000000" stroke="none" 
	d="
M311.912659,243.046600 
	C313.133484,243.673401 313.957672,244.370438 314.904358,245.314178 
	C315.280670,246.260605 315.856537,246.506210 316.822754,246.757080 
	C317.121490,246.891510 317.075989,246.780655 317.122070,246.742996 
	C316.318207,250.075943 320.300140,250.830887 320.822571,253.812958 
	C316.589874,251.639862 314.267639,247.257736 310.796082,243.585907 
	C310.986572,243.207108 311.251282,243.161957 311.912659,243.046600 
z"/>
<path fill="#575757" opacity="1.000000" stroke="none" 
	d="
M339.723816,259.096313 
	C335.877045,262.931641 333.036438,262.895416 325.813416,258.595947 
	C330.188110,259.322540 334.595917,261.708191 339.723816,259.096313 
z"/>
<path fill="#D2D2D2" opacity="1.000000" stroke="none" 
	d="
M374.110229,260.822388 
	C374.821808,259.203003 375.565765,257.755920 376.576050,256.088684 
	C377.087280,255.883667 377.332153,255.898834 377.940979,255.968536 
	C379.126648,257.519684 378.234375,259.412415 379.541443,261.137146 
	C379.828888,262.142731 379.767944,262.810333 379.184204,263.696838 
	C377.669891,263.908997 376.397156,263.868134 374.741119,263.806427 
	C373.769531,263.508148 373.506836,263.045715 373.828430,262.046753 
	C374.143921,261.464630 374.162354,261.231140 374.110229,260.822388 
z"/>
<path fill="#454545" opacity="1.000000" stroke="none" 
	d="
M236.089447,309.014954 
	C236.549271,312.643250 236.671997,316.442566 236.647598,320.694733 
	C233.820755,317.312378 234.916260,313.241089 236.089447,309.014954 
z"/>
<path fill="#757575" opacity="1.000000" stroke="none" 
	d="
M213.660416,249.592316 
	C213.379654,250.702118 212.756760,251.641556 211.965012,252.881363 
	C211.396118,253.120895 210.996094,253.060059 210.292511,252.997726 
	C209.988953,252.996231 209.626846,252.918625 209.455566,252.848251 
	C208.488174,251.764450 207.310181,252.093521 205.956116,251.821198 
	C205.449951,251.599243 205.262299,251.477875 204.921021,251.058548 
	C207.144867,247.294052 210.459503,249.813934 213.660416,249.592316 
z"/>
<path fill="#575757" opacity="1.000000" stroke="none" 
	d="
M342.146240,245.151382 
	C346.113495,248.667282 345.953949,252.796310 342.554382,257.173431 
	C343.708771,253.335159 344.582428,249.417755 342.146240,245.151382 
z"/>
<path fill="#454545" opacity="1.000000" stroke="none" 
	d="
M236.603500,324.243286 
	C238.116608,327.493011 239.364929,330.965485 240.602509,334.816101 
	C237.321716,332.352509 236.997345,328.343018 236.603500,324.243286 
z"/>
<path fill="#454545" opacity="1.000000" stroke="none" 
	d="
M239.061401,294.944641 
	C238.665268,298.351837 237.940491,301.870178 236.989105,305.680206 
	C235.468155,301.981018 237.581406,298.605194 239.061401,294.944641 
z"/>
<path fill="#2D2D2D" opacity="1.000000" stroke="none" 
	d="
M336.659973,350.005798 
	C337.128754,346.914093 337.945618,343.760590 338.993103,340.324310 
	C340.075897,343.698273 338.700775,346.856628 336.659973,350.005798 
z"/>
<path fill="#575757" opacity="1.000000" stroke="none" 
	d="
M334.346375,289.926758 
	C334.000000,290.005951 333.980225,289.525543 333.992767,289.285461 
	C336.156799,287.781372 338.308289,286.517365 340.805237,285.259399 
	C339.919952,288.092072 337.275330,288.926056 334.346375,289.926758 
z"/>
<path fill="#B1B1B1" opacity="1.000000" stroke="none" 
	d="
M204.404938,250.777130 
	C204.963898,250.811279 205.160400,250.861969 205.660675,250.932159 
	C206.350952,251.329193 206.545502,251.788055 206.433655,252.697037 
	C205.655838,254.355576 204.547073,254.831360 202.794312,254.708847 
	C201.482712,254.191116 201.165298,253.182480 200.240524,252.243912 
	C199.989349,251.988953 199.999771,251.999771 200.005005,252.005005 
	C199.624680,251.605438 199.472168,251.126404 199.764465,250.240494 
	C201.646942,248.756317 202.577881,250.999649 204.404938,250.777130 
z"/>
<path fill="#2D2D2D" opacity="1.000000" stroke="none" 
	d="
M346.879822,325.988403 
	C345.873749,323.922333 346.813995,321.824799 347.094849,319.376648 
	C348.532593,321.359802 348.445190,323.628021 346.879822,325.988403 
z"/>
<path fill="#454545" opacity="1.000000" stroke="none" 
	d="
M242.181732,335.634583 
	C246.946213,333.933929 243.884918,338.070068 244.719208,339.762329 
	C242.159836,339.622650 243.716385,336.983826 242.181732,335.634583 
z"/>
<path fill="#999999" opacity="1.000000" stroke="none" 
	d="
M219.098129,259.685120 
	C217.475601,258.155762 218.154022,256.134064 218.632843,253.743134 
	C219.761673,255.299957 219.264191,257.358582 219.098129,259.685120 
z"/>
<path fill="#2D2D2D" opacity="1.000000" stroke="none" 
	d="
M347.555359,315.690613 
	C346.119904,314.332184 346.534515,312.425476 346.416016,310.273468 
	C349.163849,311.255005 347.831543,313.501556 347.555359,315.690613 
z"/>
<path fill="#2D2D2D" opacity="1.000000" stroke="none" 
	d="
M344.661560,334.008728 
	C344.800720,332.241180 345.268372,330.411682 345.955414,328.307098 
	C347.601349,330.368469 346.238281,332.146118 344.661560,334.008728 
z"/>
<path fill="#2D2D2D" opacity="1.000000" stroke="none" 
	d="
M346.349487,306.767548 
	C345.514191,305.187347 344.929565,303.396057 344.430420,301.253204 
	C346.713165,302.232788 346.772827,304.351807 346.349487,306.767548 
z"/>
<path fill="#2D2D2D" opacity="1.000000" stroke="none" 
	d="
M339.783386,338.088470 
	C338.345642,333.621521 342.312805,337.217102 343.471436,335.710449 
	C343.694061,338.121582 341.715332,337.799805 339.783386,338.088470 
z"/>
<path fill="#757575" opacity="1.000000" stroke="none" 
	d="
M364.396973,263.923370 
	C363.929718,263.309509 363.893860,262.669952 363.853027,261.709351 
	C364.126862,260.820770 364.582153,260.548615 365.587402,260.785034 
	C366.617950,261.741302 367.275146,262.484344 368.007660,263.527832 
	C366.978485,262.931824 365.901825,263.340637 364.396973,263.923370 
z"/>
<path fill="#575757" opacity="1.000000" stroke="none" 
	d="
M325.076660,257.460144 
	C323.002899,257.813385 322.147125,256.056976 320.870331,254.511353 
	C322.922638,254.180466 323.877808,255.806519 325.076660,257.460144 
z"/>
<path fill="#D2D2D2" opacity="1.000000" stroke="none" 
	d="
M299.257507,239.391602 
	C300.126160,237.651703 301.685394,238.234650 303.472656,238.130920 
	C303.838043,238.054031 303.992188,238.523163 303.993500,238.770065 
	C302.681641,240.571075 301.061432,239.961380 299.257507,239.391602 
z"/>
<path fill="#999999" opacity="1.000000" stroke="none" 
	d="
M359.633362,251.244232 
	C359.578583,249.129303 361.047943,248.982330 362.862274,249.158524 
	C363.610107,252.242996 361.437195,251.250183 359.633362,251.244232 
z"/>
<path fill="#2D2D2D" opacity="1.000000" stroke="none" 
	d="
M343.656860,297.275269 
	C342.699005,296.311188 341.873413,294.983765 341.077332,293.314270 
	C343.384186,293.343658 343.541809,295.158356 343.656860,297.275269 
z"/>
<path fill="#D2D2D2" opacity="1.000000" stroke="none" 
	d="
M277.974182,238.301636 
	C279.206329,238.183762 280.383789,238.299301 281.784485,238.690186 
	C281.009369,240.426651 279.703308,240.058609 278.190247,239.291656 
	C278.002502,239.007294 277.919525,238.535049 277.974182,238.301636 
z"/>
<path fill="#2D2D2D" opacity="1.000000" stroke="none" 
	d="
M373.742676,261.507690 
	C374.147888,262.158051 374.208496,262.620972 374.313446,263.434753 
	C373.206146,263.878204 372.054474,263.970795 370.469879,264.042114 
	C370.638672,262.475189 371.937347,261.796936 373.742676,261.507690 
z"/>
<path fill="#575757" opacity="1.000000" stroke="none" 
	d="
M379.357086,263.937561 
	C378.875397,263.299622 378.808197,262.649384 378.676758,261.676117 
	C378.915344,260.808350 379.378235,260.545135 380.392395,260.736633 
	C381.031891,261.072662 381.199341,261.296021 381.239075,261.785339 
	C380.718689,262.635559 380.245117,263.280426 379.357086,263.937561 
z"/>
<path fill="#BFBFBF" opacity="1.000000" stroke="none" 
	d="
M359.051575,251.268112 
	C360.444275,250.873276 361.848389,251.270584 362.974182,249.710754 
	C363.427582,249.611938 363.728546,249.873886 364.119690,250.434387 
	C363.144928,252.518555 361.333374,251.762482 359.410248,252.011200 
	C358.969482,251.828751 358.938751,251.657455 359.051575,251.268112 
z"/>
<path fill="#454545" opacity="1.000000" stroke="none" 
	d="
M247.277130,353.896484 
	C248.457001,353.863586 248.328949,354.832336 248.400101,355.824707 
	C247.541534,355.656219 247.183472,355.053894 247.277130,353.896484 
z"/>
<path fill="#2D2D2D" opacity="1.000000" stroke="none" 
	d="
M334.844452,354.026642 
	C334.193054,353.181488 334.784729,352.574280 335.543274,351.811188 
	C336.175964,352.616699 335.933014,353.363586 334.844452,354.026642 
z"/>
<path fill="#454545" opacity="1.000000" stroke="none" 
	d="
M245.259964,346.820374 
	C246.426407,346.888245 246.405426,347.782654 246.383362,348.892944 
	C245.227249,348.843262 244.985580,348.073181 245.259964,346.820374 
z"/>
<path fill="#454545" opacity="1.000000" stroke="none" 
	d="
M244.653488,343.171021 
	C245.075439,343.567505 245.276123,344.116638 245.329651,344.844971 
	C244.378143,344.701935 244.136032,344.131561 244.653488,343.171021 
z"/>
<path fill="#D2D2D2" opacity="1.000000" stroke="none" 
	d="
M271.510803,242.737640 
	C271.992126,243.812256 271.654755,244.619019 270.102417,244.879211 
	C269.714539,243.819458 270.495667,243.330688 271.510803,242.737640 
z"/>
<path fill="#575757" opacity="1.000000" stroke="none" 
	d="
M341.819031,240.442749 
	C341.665588,240.988617 341.371552,241.320984 340.771454,241.788589 
	C339.725281,240.539749 340.371368,240.147949 341.819031,240.442749 
z"/>
<path fill="#999999" opacity="1.000000" stroke="none" 
	d="
M368.716858,249.102127 
	C368.965088,250.069550 368.667877,250.807648 367.305389,250.974136 
	C366.935394,249.967361 367.462769,249.361877 368.716858,249.102127 
z"/>
<path fill="#575757" opacity="1.000000" stroke="none" 
	d="
M345.462158,281.059540 
	C345.473114,280.339600 345.816833,279.598145 346.473999,278.800629 
	C346.969208,279.730927 346.559296,280.461182 345.462158,281.059540 
z"/>
<path fill="#999999" opacity="1.000000" stroke="none" 
	d="
M199.651886,249.952255 
	C199.992065,250.374878 200.007751,250.841980 200.016846,251.659668 
	C199.516678,251.954132 199.023117,251.898010 198.342667,251.676727 
	C198.546310,251.006607 198.936859,250.501663 199.651886,249.952255 
z"/>
<path fill="#D2D2D2" opacity="1.000000" stroke="none" 
	d="
M206.945618,262.239685 
	C207.315689,262.152954 207.850525,262.211853 207.216461,262.881775 
	C206.995132,262.815430 206.952316,262.652557 206.945618,262.239685 
z"/>
<path fill="#050505" opacity="1.000000" stroke="none" 
	d="
M329.566650,101.446022 
	C332.848175,101.118950 335.662201,100.658577 338.482147,100.618698 
	C346.806549,100.500946 354.681702,107.109863 355.377197,115.276802 
	C356.281097,125.889977 356.619629,136.550293 357.319336,147.182556 
	C357.501312,149.947937 356.707886,150.975052 353.960327,149.970901 
	C337.548889,143.973007 320.949951,145.614395 304.922943,150.559357 
	C295.295258,153.529877 286.877258,153.279709 277.353241,150.463150 
	C261.430603,145.754303 245.044235,143.977844 228.788376,149.914871 
	C226.707428,150.674896 225.529099,150.066772 225.923172,147.605545 
	C226.291595,145.304504 226.368561,142.919891 227.032562,140.709900 
	C229.168884,133.599472 229.629074,126.331886 229.603104,118.979027 
	C229.596420,117.088722 228.992355,114.664810 231.766464,114.078735 
	C244.976944,111.287842 254.935883,102.897980 265.110626,94.864960 
	C265.241058,94.761963 265.360138,94.644661 265.489502,94.540215 
	C273.537750,88.041641 274.739594,89.153999 280.793243,94.246071 
	C287.874420,100.202477 296.839020,101.179619 305.658051,101.872635 
	C313.463501,102.486008 321.299377,102.399483 329.566650,101.446022 
z"/>
<path fill="#080808" opacity="1.000000" stroke="none" 
	d="
M346.966370,157.499634 
	C349.271881,163.944290 348.947601,170.037994 346.370483,175.817749 
	C343.156982,183.024826 333.679474,187.005585 323.258026,185.997971 
	C312.135803,184.922592 303.911133,177.733643 301.641266,167.103394 
	C300.369293,161.146286 301.962952,157.376205 307.341156,155.489319 
	C318.024078,151.741318 328.984375,150.599213 340.180115,153.062668 
	C342.887909,153.658478 345.175720,154.801865 346.966370,157.499634 
z"/>
<path fill="#080808" opacity="1.000000" stroke="none" 
	d="
M251.188980,152.049713 
	C259.388214,151.767654 266.938812,152.903580 274.333710,155.085205 
	C279.849548,156.712479 281.843842,159.981857 280.937042,165.617142 
	C278.720215,179.393585 268.023926,187.491333 254.168976,185.760162 
	C250.387253,185.287628 246.580673,184.820679 243.061676,183.096588 
	C235.462189,179.373322 231.126846,164.278442 235.717880,157.156265 
	C237.021759,155.133530 238.891678,153.703827 241.326355,153.317993 
	C244.445938,152.823624 247.588684,152.475388 251.188980,152.049713 
z"/>
<path fill="#161616" opacity="1.000000" stroke="none" 
	d="
M284.808502,56.729904 
	C286.450165,56.549976 287.777069,56.469131 289.487091,56.512756 
	C290.891663,57.007313 292.018494,57.010952 293.316132,57.474167 
	C304.063690,59.501488 309.851929,66.478218 313.349792,76.343292 
	C313.552582,77.781548 312.948212,78.257347 311.602173,78.097168 
	C303.489807,66.299622 292.334778,62.198807 278.450745,63.025852 
	C277.454590,62.984013 276.919434,63.027184 276.130920,63.209126 
	C273.177917,63.804432 270.487366,64.340858 267.400024,64.969391 
	C266.012024,64.951004 265.148865,64.640030 264.834412,63.272491 
	C270.005463,60.687984 274.968292,58.127434 280.943878,57.329304 
	C282.464813,57.688187 283.411255,56.828712 284.808502,56.729904 
z"/>
<path fill="#080808" opacity="1.000000" stroke="none" 
	d="
M256.087646,85.424675 
	C253.940491,86.182953 252.059601,86.841324 249.811188,87.549995 
	C248.702011,87.563965 248.115662,87.243515 247.634384,86.114731 
	C250.624130,83.980446 253.664047,82.370422 256.993744,80.583588 
	C257.839874,78.666145 259.575409,77.889992 260.712463,76.204559 
	C261.085968,75.917313 261.258575,75.885582 261.643127,75.697693 
	C262.843658,75.056313 263.980347,75.001213 265.269836,74.565392 
	C266.341736,74.700813 267.098267,74.745003 268.133362,74.725632 
	C269.284668,74.239510 269.849091,75.087128 270.881775,75.265739 
	C275.206451,76.099487 277.789734,79.350357 281.509613,81.385544 
	C281.606384,83.931160 279.966400,83.013351 278.349915,82.891068 
	C273.938995,82.295738 269.873108,82.249054 265.401245,82.871147 
	C264.406128,82.973198 263.833832,83.096077 263.010437,83.427910 
	C261.523590,83.765198 260.320282,84.022713 258.751648,84.335495 
	C257.573029,84.406548 257.040100,85.032356 256.087646,85.424675 
z"/>
<path fill="#2D2D2D" opacity="1.000000" stroke="none" 
	d="
M246.443085,100.091515 
	C241.038269,104.822258 235.338043,108.340057 228.633438,109.945892 
	C223.586426,111.154724 219.774048,109.541321 216.779449,104.492035 
	C220.865799,104.734734 224.694107,105.836044 228.830078,104.503464 
	C229.313019,103.874153 229.556320,103.524353 230.247559,103.147217 
	C231.164185,102.808990 231.795898,102.661751 232.716919,102.377220 
	C234.010468,101.993111 235.046951,101.891357 236.316864,101.459114 
	C237.172501,101.123238 237.743149,100.898010 238.603546,100.560913 
	C239.104553,100.441483 239.311340,100.422928 239.812317,100.506638 
	C241.798355,99.941383 243.490204,99.273888 245.524384,98.518967 
	C246.064041,98.783295 246.261444,99.135002 246.443085,100.091515 
z"/>
<path fill="#2D2D2D" opacity="1.000000" stroke="none" 
	d="
M314.776978,60.630146 
	C319.305878,63.416477 323.148010,66.466736 325.115601,71.300819 
	C327.540344,77.258163 325.747559,83.591629 319.916412,87.215515 
	C322.933777,77.523750 320.529907,69.566231 313.820404,62.468605 
	C313.566040,61.575489 313.816162,61.068974 314.776978,60.630146 
z"/>
<path fill="#2D2D2D" opacity="1.000000" stroke="none" 
	d="
M326.657837,84.424179 
	C327.197021,79.140747 333.128113,78.005676 334.201355,73.323044 
	C334.618958,71.500954 335.970795,72.900528 336.546722,73.933441 
	C338.080566,76.684364 337.211731,79.260422 335.287262,81.224548 
	C332.548615,84.019608 329.426758,86.439156 326.323029,89.146088 
	C324.700928,87.162827 326.135590,85.997322 326.657837,84.424179 
z"/>
<path fill="#161616" opacity="1.000000" stroke="none" 
	d="
M242.367157,95.622787 
	C242.411652,96.859116 241.466843,97.158440 240.253235,97.710510 
	C239.601456,98.477898 239.253342,99.040382 238.477173,99.669235 
	C237.583740,100.131157 236.948624,100.352638 236.007080,100.730064 
	C234.817001,101.179550 233.929749,101.458458 232.711914,101.890060 
	C231.892181,102.132927 231.409180,102.212944 230.545166,102.224388 
	C229.930176,102.139259 229.688385,102.077492 229.078400,101.948402 
	C227.415863,97.276161 231.693573,97.425148 233.932983,96.103004 
	C235.219955,95.343201 237.134689,95.646698 239.177368,95.393829 
	C240.346817,95.214264 241.102936,95.231949 242.367157,95.622787 
z"/>
<path fill="#2D2D2D" opacity="1.000000" stroke="none" 
	d="
M356.004883,84.736343 
	C352.769073,83.770866 349.584747,84.634537 346.993683,82.799896 
	C346.060760,82.139343 345.522888,81.541275 346.018921,80.419708 
	C346.393555,79.572502 347.412048,78.874596 347.940918,79.337837 
	C350.603973,81.670380 354.792603,80.285591 357.214050,83.617371 
	C357.037750,84.201187 356.771057,84.413666 356.004883,84.736343 
z"/>
<path fill="#575757" opacity="1.000000" stroke="none" 
	d="
M247.214355,85.531639 
	C247.959991,86.068741 248.335739,86.547005 249.077576,87.312782 
	C246.110886,89.575203 242.733215,91.391830 238.061981,90.882462 
	C240.472900,87.514870 243.928986,86.921165 247.214355,85.531639 
z"/>
<path fill="#757575" opacity="1.000000" stroke="none" 
	d="
M264.577240,62.897247 
	C264.974884,64.010704 265.859161,64.224602 266.813171,64.812424 
	C265.164825,66.985924 262.802979,66.185646 260.525024,66.679016 
	C260.615875,63.878708 262.968903,63.950291 264.577240,62.897247 
z"/>
<path fill="#B1B1B1" opacity="1.000000" stroke="none" 
	d="
M260.506073,75.850555 
	C261.718719,78.578308 259.787231,79.413017 257.653198,80.382042 
	C257.173401,78.221016 256.386261,75.625809 260.506073,75.850555 
z"/>
<path fill="#454545" opacity="1.000000" stroke="none" 
	d="
M230.902008,157.025574 
	C229.131271,156.969162 227.029022,157.644455 227.186447,155.352005 
	C227.292847,153.802551 229.027237,153.430038 230.367935,153.770203 
	C232.113937,154.213226 233.070221,155.229340 230.902008,157.025574 
z"/>
<path fill="#757575" opacity="1.000000" stroke="none" 
	d="
M278.206604,83.134628 
	C278.869080,81.502975 280.519012,83.488945 281.590759,81.813583 
	C283.145782,81.701950 284.220612,82.487808 283.988922,83.722511 
	C283.677795,85.380463 282.215485,84.693352 281.167816,84.424187 
	C280.225311,84.182037 279.326874,83.768364 278.206604,83.134628 
z"/>
<path fill="#161616" opacity="1.000000" stroke="none" 
	d="
M228.588898,100.957932 
	C227.871735,101.259087 227.512375,101.352829 227.220840,101.251472 
	C225.908234,100.795151 224.078781,101.125481 223.664322,99.227318 
	C223.504379,98.494896 224.198654,97.844467 224.850128,98.135757 
	C226.317978,98.792061 229.358109,97.010826 228.588898,100.957932 
z"/>
<path fill="#757575" opacity="1.000000" stroke="none" 
	d="
M311.249054,78.171783 
	C311.848450,77.606941 312.435944,77.388184 313.249573,76.927483 
	C315.163910,77.556725 315.396179,79.399979 314.365173,80.274826 
	C312.662323,81.719818 312.205780,79.320107 311.249054,78.171783 
z"/>
<path fill="#454545" opacity="1.000000" stroke="none" 
	d="
M246.811310,100.621231 
	C246.331299,100.319527 246.235199,99.942772 246.002899,98.998779 
	C246.539154,97.046402 247.799316,96.839607 249.354980,96.783012 
	C249.719162,98.684288 248.479553,99.626839 246.811310,100.621231 
z"/>
<path fill="#757575" opacity="1.000000" stroke="none" 
	d="
M352.882568,154.117737 
	C354.450775,153.557343 355.421509,154.095566 355.592896,155.431396 
	C355.750183,156.657516 354.718506,157.005676 353.348511,157.084808 
	C352.494843,156.177277 352.581512,155.277618 352.882568,154.117737 
z"/>
<path fill="#999999" opacity="1.000000" stroke="none" 
	d="
M315.123535,60.246410 
	C314.806000,60.886726 314.392914,61.208210 313.782227,61.872177 
	C312.308258,61.825336 311.584595,60.862492 312.278351,59.743984 
	C313.022125,58.544922 314.161591,58.953735 315.123535,60.246410 
z"/>
<path fill="#454545" opacity="1.000000" stroke="none" 
	d="
M284.810791,56.473351 
	C284.471039,58.137989 283.227142,57.908344 281.657837,57.514370 
	C282.151031,56.266106 283.341217,56.342606 284.810791,56.473351 
z"/>
<path fill="#454545" opacity="1.000000" stroke="none" 
	d="
M293.414612,57.144302 
	C292.464630,58.002693 291.310242,58.129433 290.031647,56.959320 
	C291.030518,55.979824 292.112549,56.413998 293.414612,57.144302 
z"/>
<path fill="#B1B1B1" opacity="1.000000" stroke="none" 
	d="
M265.257996,74.448349 
	C264.816528,75.743370 263.606659,75.631699 262.176270,75.667519 
	C262.351471,73.857834 263.646515,74.061623 265.257996,74.448349 
z"/>
<path fill="#757575" opacity="1.000000" stroke="none" 
	d="
M243.175903,95.693848 
	C242.135849,95.810379 241.393661,95.744324 240.119690,95.497192 
	C240.945541,94.139519 242.314392,92.739822 243.175903,95.693848 
z"/>
<path fill="#BFBFBF" opacity="1.000000" stroke="none" 
	d="
M228.738388,102.128326 
	C229.086914,101.704765 229.463638,101.528458 230.464264,101.353561 
	C231.641235,101.943481 231.710907,102.622704 231.244690,103.649239 
	C230.629333,104.107300 230.234009,104.277344 229.517242,104.381378 
	C229.052734,103.668777 228.909653,103.022179 228.738388,102.128326 
z"/>
<path fill="#2D2D2D" opacity="1.000000" stroke="none" 
	d="
M352.747498,153.812241 
	C353.312439,154.723022 354.348846,155.528442 353.144592,156.744598 
	C352.834106,157.028091 352.667236,157.054184 352.250275,157.039917 
	C351.384521,156.555176 350.712463,156.164246 350.498840,154.993637 
	C351.156921,154.330856 351.777985,154.048859 352.747498,153.812241 
z"/>
<path fill="#BFBFBF" opacity="1.000000" stroke="none" 
	d="
M237.783112,99.342033 
	C238.447189,98.638382 238.900848,98.259415 239.653503,97.899033 
	C239.978714,98.590851 240.004944,99.264091 240.068817,100.273102 
	C239.917923,100.706314 239.729370,100.803757 239.224655,100.938339 
	C237.812576,101.203300 237.641434,100.487274 237.783112,99.342033 
z"/>
<path fill="#757575" opacity="1.000000" stroke="none" 
	d="
M350.244019,154.703674 
	C350.900696,155.210098 351.265564,155.807327 351.815308,156.702042 
	C350.477448,157.044754 348.753784,157.276581 350.244019,154.703674 
z"/>
<path fill="#454545" opacity="1.000000" stroke="none" 
	d="
M276.123566,63.435810 
	C276.191193,62.220055 276.843872,62.015270 277.884003,62.745861 
	C277.454895,63.181152 276.916748,63.392384 276.123566,63.435810 
z"/>
<path fill="#B1B1B1" opacity="1.000000" stroke="none" 
	d="
M271.039429,75.017990 
	C270.332062,75.881195 269.561249,75.445885 268.595490,74.919083 
	C269.254486,73.930489 270.085754,74.027077 271.039429,75.017990 
z"/>
<path fill="#757575" opacity="1.000000" stroke="none" 
	d="
M263.028015,83.672623 
	C262.963440,82.322731 263.823486,82.345123 264.866272,82.695328 
	C264.668610,83.641243 264.052277,83.836533 263.028015,83.672623 
z"/>
<path fill="#575757" opacity="1.000000" stroke="none" 
	d="
M256.121246,85.632477 
	C256.066620,84.487320 256.824066,84.159019 258.084106,84.249443 
	C258.094971,85.370255 257.262665,85.562042 256.121246,85.632477 
z"/>
<path fill="#757575" opacity="1.000000" stroke="none" 
	d="
M355.627075,85.077957 
	C355.792053,84.675873 356.078674,84.505249 356.834869,84.161652 
	C358.313416,86.228165 356.975098,85.702843 355.627075,85.077957 
z"/>
<path fill="#999999" opacity="1.000000" stroke="none" 
	d="
M250.981598,96.164474 
	C251.955399,95.970490 252.154358,96.338348 251.514801,97.066727 
	C251.071457,96.940971 250.889740,96.718880 250.981598,96.164474 
z"/>
<path fill="#454545" opacity="1.000000" stroke="none" 
	d="
M250.811829,95.901566 
	C251.230637,96.053879 251.206070,96.275589 251.217331,96.830185 
	C250.863052,97.113449 250.386932,97.187988 250.100113,96.989273 
	C249.429749,96.524811 250.270340,96.317917 250.811829,95.901566 
z"/>
<path fill="#1A1A1A" opacity="1.000000" stroke="none" 
	d="
M294.264465,377.472229 
	C294.908600,377.460785 295.269989,377.506592 295.848877,377.722778 
	C296.141937,378.102814 296.217499,378.312469 296.205902,378.844788 
	C285.157898,381.779572 276.948792,376.839081 269.734833,369.412201 
	C266.502655,366.084717 264.116516,362.102905 261.752380,357.744446 
	C261.605927,356.593719 260.983032,356.062347 260.496094,355.137390 
	C259.141754,351.841278 257.918304,348.802368 256.660522,345.378723 
	C257.144714,344.579315 257.735901,344.380524 258.860779,344.530945 
	C260.547058,347.144958 261.772217,349.625549 263.082336,352.436768 
	C263.473877,353.464966 264.015869,353.998901 264.588623,354.853027 
	C271.530914,364.667969 279.173431,373.200073 291.456299,376.607971 
	C292.582947,376.893311 293.297180,377.168732 294.264465,377.472229 
z"/>
<path fill="#575757" opacity="1.000000" stroke="none" 
	d="
M269.899933,348.231812 
	C260.596069,343.634918 257.306091,337.975464 258.155914,328.570099 
	C259.610840,328.170563 259.721863,329.326324 260.066010,330.218262 
	C262.333832,336.095886 264.452759,342.051605 269.958618,345.918976 
	C270.554291,346.337372 271.716370,347.274048 269.899933,348.231812 
z"/>
<path fill="#575757" opacity="1.000000" stroke="none" 
	d="
M333.646545,328.972961 
	C336.504700,322.533447 337.898346,316.247223 336.378632,309.056183 
	C341.982849,313.140167 341.285736,321.288879 334.958435,329.874298 
	C334.339661,329.801392 334.073944,329.616211 333.646545,328.972961 
z"/>
<path fill="#454545" opacity="1.000000" stroke="none" 
	d="
M298.385864,275.425293 
	C298.067749,275.851624 297.726990,275.915405 296.878540,276.091919 
	C293.773895,274.660187 293.550629,269.592712 288.499634,271.308960 
	C287.939636,271.134308 287.745392,270.798340 287.556946,269.880249 
	C289.636780,265.341309 291.888397,265.306335 294.273163,269.015320 
	C295.589905,271.063293 297.619232,272.628693 298.385864,275.425293 
z"/>
<path fill="#757575" opacity="1.000000" stroke="none" 
	d="
M259.335541,344.279480 
	C258.726074,344.770599 258.130219,344.876801 257.080261,344.988525 
	C254.056000,341.589661 254.176041,337.568329 253.876328,333.585449 
	C257.589447,336.107574 257.908997,340.291656 259.335541,344.279480 
z"/>
<path fill="#757575" opacity="1.000000" stroke="none" 
	d="
M325.684937,293.101624 
	C327.097290,291.880463 328.845673,292.107788 331.067200,292.604004 
	C329.772827,294.279022 327.833160,293.748016 325.684937,293.101624 
z"/>
<path fill="#454545" opacity="1.000000" stroke="none" 
	d="
M283.257477,277.181793 
	C281.193207,274.934906 283.568451,274.342529 284.711853,272.907166 
	C285.198151,273.105072 285.291718,273.578033 285.307983,274.770111 
	C284.662170,276.118805 284.093719,276.748413 283.257477,277.181793 
z"/>
<path fill="#575757" opacity="1.000000" stroke="none" 
	d="
M294.364990,377.159058 
	C293.724823,378.098206 292.920471,377.962524 291.970398,377.067566 
	C292.636475,376.219849 293.406677,376.614929 294.364990,377.159058 
z"/>
<path fill="#575757" opacity="1.000000" stroke="none" 
	d="
M260.306458,355.182373 
	C261.446899,355.051514 261.786102,355.809448 261.761292,357.095459 
	C261.189362,356.772034 260.718536,356.128296 260.306458,355.182373 
z"/>
<path fill="#575757" opacity="1.000000" stroke="none" 
	d="
M264.758606,354.792694 
	C263.708496,354.993378 263.218994,354.357239 263.103363,353.088898 
	C263.707367,353.341248 264.247437,353.915039 264.758606,354.792694 
z"/>
<path fill="#999999" opacity="1.000000" stroke="none" 
	d="
M333.902283,330.044373 
	C334.122192,331.142426 333.728729,331.617615 333.037170,331.596771 
	C332.264557,331.573517 332.044006,331.037415 332.422546,330.143677 
	C332.940887,329.855988 333.265015,329.747162 333.902283,330.044373 
z"/>
<path fill="#454545" opacity="1.000000" stroke="none" 
	d="
M281.322113,279.298309 
	C279.243958,277.031067 281.424622,276.936096 282.641235,276.607178 
	C284.003906,278.610596 282.617828,279.006042 281.322113,279.298309 
z"/>
<path fill="#575757" opacity="1.000000" stroke="none" 
	d="
M287.144531,269.630463 
	C287.673737,269.655945 287.784668,270.013763 288.014771,270.920929 
	C287.954865,271.822388 287.775818,272.174530 287.290405,272.531860 
	C285.382812,271.830658 286.195038,270.882660 287.144531,269.630463 
z"/>
<path fill="#575757" opacity="1.000000" stroke="none" 
	d="
M285.558289,275.282776 
	C285.174286,275.017761 285.117920,274.546326 285.083069,273.353485 
	C285.482941,272.558563 285.861328,272.485046 286.381134,272.697693 
	C286.822296,273.837097 286.363037,274.459412 285.558289,275.282776 
z"/>
<path fill="#575757" opacity="1.000000" stroke="none" 
	d="
M334.342987,330.359772 
	C333.955566,330.348328 333.695679,330.246094 333.026306,330.054413 
	C332.748291,329.599823 332.879822,329.234741 333.248047,328.692261 
	C333.688599,328.745941 333.892365,328.977020 334.350769,329.597321 
	C334.605408,329.986572 334.470490,330.269012 334.342987,330.359772 
z"/>
<path fill="#575757" opacity="1.000000" stroke="none" 
	d="
M296.447266,379.117798 
	C296.071259,378.956726 296.023773,378.745972 296.021332,378.214203 
	C296.888428,377.931305 297.276886,378.231171 296.447266,379.117798 
z"/>
<path fill="#D2D2D2" opacity="1.000000" stroke="none" 
	d="
M253.015106,289.381653 
	C252.203369,289.634888 251.326675,289.586945 250.221039,289.289917 
	C250.995483,287.758301 251.980820,287.822021 253.015106,289.381653 
z"/>
<path fill="#D2D2D2" opacity="1.000000" stroke="none" 
	d="
M258.824921,288.751465 
	C258.386169,289.851257 257.461853,289.820435 256.237030,289.753479 
	C256.309082,288.035065 257.296906,287.833099 258.824921,288.751465 
z"/>
<path fill="#575757" opacity="1.000000" stroke="none" 
	d="
M324.819153,290.003906 
	C324.453339,290.945374 323.852661,290.928101 323.084290,290.149231 
	C323.543945,289.875549 324.110229,289.848694 324.819153,290.003906 
z"/>
<path fill="#575757" opacity="1.000000" stroke="none" 
	d="
M331.852234,289.568024 
	C331.835632,290.661163 331.253937,291.015961 330.155670,290.329498 
	C330.546265,289.899872 331.063904,289.679321 331.852234,289.568024 
z"/>
<path fill="#161616" opacity="1.000000" stroke="none" 
	d="
M328.393463,237.188141 
	C330.369751,238.144119 330.532990,239.159592 329.131500,240.328354 
	C328.879944,240.538147 328.598724,240.766800 328.293915,240.849808 
	C325.562866,241.593491 322.806244,242.312408 320.109192,240.800018 
	C319.349762,240.374146 318.818695,239.451355 319.283783,238.696457 
	C321.065186,235.804840 324.012665,237.201141 326.504456,236.936905 
	C326.986084,236.885834 327.488800,237.033920 328.393463,237.188141 
z"/>
<path fill="#161616" opacity="1.000000" stroke="none" 
	d="
M325.540894,215.730835 
	C326.218018,216.464371 326.770721,216.974121 326.852203,217.550461 
	C327.147034,219.636612 327.666229,222.029602 324.974243,222.916336 
	C323.234131,223.489532 322.130066,222.213364 322.008057,220.563202 
	C321.833679,218.204437 321.204834,215.336929 325.540894,215.730835 
z"/>
<path fill="#010101" opacity="1.000000" stroke="none" 
	d="
M317.017883,246.572784 
	C316.350281,247.119797 315.675934,247.057312 315.135529,245.913589 
	C315.656036,245.791931 316.285156,246.023010 317.017883,246.572784 
z"/>
<path fill="#161616" opacity="1.000000" stroke="none" 
	d="
M294.321350,211.199829 
	C296.997284,213.776459 296.810577,217.605377 297.849274,220.995712 
	C298.660370,223.643234 296.265259,222.869370 295.029114,222.884216 
	C293.603210,222.901367 291.290558,223.687302 291.975311,220.682007 
	C292.673767,217.616486 293.443085,214.567123 294.321350,211.199829 
z"/>
<path fill="#161616" opacity="1.000000" stroke="none" 
	d="
M241.832031,216.720734 
	C243.293884,217.663467 244.789169,218.768066 243.526871,219.920776 
	C242.175644,221.154709 240.036819,220.321854 238.242294,220.322296 
	C237.506195,220.322479 236.934006,219.834274 237.162308,219.063446 
	C237.786957,216.954483 239.368256,216.330460 241.832031,216.720734 
z"/>
<path fill="#010101" opacity="1.000000" stroke="none" 
	d="
M201.756134,253.863831 
	C203.452774,255.218124 204.245865,253.284653 205.697021,252.657547 
	C206.255905,252.545441 206.435898,252.586899 206.699951,252.892334 
	C205.634109,255.027054 208.607224,258.185608 204.521545,258.988037 
	C204.095123,257.553650 203.398468,256.819977 202.155930,256.149323 
	C201.600861,255.476547 201.500046,254.888535 201.756134,253.863831 
z"/>
<path fill="#999999" opacity="1.000000" stroke="none" 
	d="
M201.908630,253.181473 
	C201.305374,253.865158 201.098801,254.434723 201.599091,255.600708 
	C200.479248,255.335724 200.087723,254.087814 199.997314,252.329224 
	C200.732773,252.053986 201.475662,252.120087 201.908630,253.181473 
z"/>
<path fill="#2D2D2D" opacity="1.000000" stroke="none" 
	d="
M380.783813,260.496155 
	C380.298401,260.993042 379.813202,261.076172 378.970306,261.256195 
	C375.005524,260.215881 378.114624,258.284119 378.185059,256.374573 
	C378.923584,255.799057 379.542236,255.575043 380.384521,255.248627 
	C380.666779,256.791595 380.725433,258.437012 380.783813,260.496155 
z"/>
<path fill="#454545" opacity="1.000000" stroke="none" 
	d="
M383.732178,256.397583 
	C383.820404,255.077652 383.320404,254.030045 384.487946,252.986282 
	C385.910858,255.378891 384.778656,257.735992 385.311310,260.399689 
	C383.076813,259.334290 384.013824,257.868805 383.732178,256.397583 
z"/>
<path fill="#010101" opacity="1.000000" stroke="none" 
	d="
M216.373596,254.911240 
	C216.677109,256.469879 216.684799,257.748169 216.676300,259.409607 
	C216.338257,260.284180 215.885010,260.500977 214.954102,260.235962 
	C214.580765,258.622437 214.553726,257.216034 214.535492,255.387756 
	C215.005859,254.627167 215.517014,254.515549 216.373596,254.911240 
z"/>
<path fill="#575757" opacity="1.000000" stroke="none" 
	d="
M216.781631,254.866425 
	C216.199600,255.111069 215.729813,255.030548 214.902145,254.957916 
	C213.995941,254.174026 213.977341,253.458282 215.033356,253.180939 
	C216.116928,252.896362 216.908157,253.221161 216.781631,254.866425 
z"/>
<path fill="#575757" opacity="1.000000" stroke="none" 
	d="
M214.417725,260.250183 
	C215.065262,259.989075 215.522720,259.949341 216.320160,259.851196 
	C216.850082,260.992615 216.190826,261.656342 215.132202,261.778473 
	C214.325150,261.871613 214.117508,261.198883 214.417725,260.250183 
z"/>
<path fill="#161616" opacity="1.000000" stroke="none" 
	d="
M365.880005,260.643219 
	C365.489197,261.071808 365.017639,261.145355 364.197083,261.303589 
	C361.427704,259.797821 363.847900,258.401154 364.071228,256.551270 
	C365.136780,256.111145 365.412384,256.828430 365.772736,257.862427 
	C365.877899,258.839722 365.838593,259.563965 365.880005,260.643219 
z"/>
<path fill="#2D2D2D" opacity="1.000000" stroke="none" 
	d="
M368.763977,257.435944 
	C368.805267,255.978806 368.896271,254.885498 368.961639,253.378906 
	C371.760712,254.626190 369.764252,257.358978 370.240326,259.814545 
	C369.897919,260.195801 369.706268,260.270844 369.262756,260.167358 
	C368.945160,259.259155 368.879425,258.529480 368.763977,257.435944 
z"/>
<path fill="#757575" opacity="1.000000" stroke="none" 
	d="
M369.049042,260.223633 
	C369.190643,260.010590 369.370392,260.032318 369.819855,260.087372 
	C369.906708,260.682373 369.621613,260.940430 369.049042,260.223633 
z"/>
<path fill="#D2D2D2" opacity="1.000000" stroke="none" 
	d="
M207.105347,253.179535 
	C206.784012,253.156326 206.397171,252.865738 206.236542,252.684845 
	C206.056641,252.159454 206.037338,251.814941 205.991241,251.211044 
	C207.318863,250.987595 209.130295,249.546082 209.493835,252.443024 
	C208.665100,252.919495 208.045898,253.061111 207.105347,253.179535 
z"/>
<path fill="#E8E8E8" opacity="1.000000" stroke="none" 
	d="
M232.789825,101.459412 
	C233.774277,100.671791 234.527542,100.269775 235.614197,99.872749 
	C236.662994,100.101044 237.053543,100.614662 237.107330,101.632202 
	C236.476379,103.527008 234.888565,102.878639 233.522675,103.455437 
	C232.697556,103.017044 232.499802,102.478119 232.789825,101.459412 
z"/>
<path fill="#F1F1F1" opacity="1.000000" stroke="none" 
	d="
M237.253571,101.879929 
	C236.714432,101.434700 236.447647,100.921555 236.064209,100.143082 
	C236.433136,99.601494 236.918686,99.325249 237.698883,99.033173 
	C238.145096,99.559135 238.296661,100.100922 238.678345,100.809097 
	C238.447617,101.254318 237.986771,101.533157 237.253571,101.879929 
z"/>
<path fill="#F1F1F1" opacity="1.000000" stroke="none" 
	d="
M232.694336,101.087738 
	C233.033234,101.604561 233.045456,102.135300 233.104858,103.063904 
	C232.630676,103.631203 232.109329,103.800652 231.306320,103.953690 
	C231.043228,103.292244 231.061798,102.647224 231.084274,101.678589 
	C231.514679,101.270538 231.941177,101.186096 232.694336,101.087738 
z"/>
</svg>