<svg version="1.1" id="Layer_1" xmlns="http://www.w3.org/2000/svg" xmlns:xlink="http://www.w3.org/1999/xlink" x="0px" y="0px"
	 width="100%" viewBox="0 0 250 250" enable-background="new 0 0 250 250" xml:space="preserve">
<path fill="#FFFFFF" opacity="1.000000" stroke="none" 
	d="
M160.000000,251.000000 
	C106.666672,251.000000 53.833340,251.000000 1.000007,251.000000 
	C1.000005,167.666672 1.000005,84.333351 1.000002,1.000018 
	C84.333321,1.000012 167.666641,1.000012 250.999969,1.000006 
	C250.999969,84.333313 250.999969,167.666626 250.999985,250.999969 
	C220.833328,251.000000 190.666672,251.000000 160.000000,251.000000 
M114.443344,97.860115 
	C114.614502,97.911476 114.785660,97.962845 114.945786,98.724228 
	C106.115944,108.138985 94.707726,106.985474 83.512192,105.919930 
	C79.766479,117.703163 77.850166,129.051910 82.819016,140.467865 
	C83.345703,141.677902 84.798027,142.485062 86.613983,144.249817 
	C86.988899,146.642303 86.950714,150.490280 88.258423,153.807739 
	C90.345596,159.102539 92.341721,165.095016 96.266464,168.778671 
	C99.034286,171.376465 101.903816,174.165787 104.839439,176.742935 
	C107.584358,179.152634 110.298782,181.684357 113.369339,183.618240 
	C120.461197,188.084839 128.163788,190.888672 134.812912,191.116074 
	C137.829987,186.740448 139.505814,182.928146 142.358231,180.495514 
	C146.688705,176.802399 150.315826,172.472778 155.111206,169.044693 
	C163.305099,163.187057 166.503677,153.495346 167.469482,142.922363 
	C168.429657,143.599915 169.073608,144.054306 169.705246,144.500015 
	C175.994980,136.792435 174.325302,116.623390 168.948929,108.139565 
	C168.298370,107.112984 165.920578,106.595596 164.450089,106.765633 
	C151.441467,108.269897 140.357681,104.956146 132.039261,94.355904 
	C131.442825,93.595871 131.159805,92.589882 130.606323,91.438797 
	C136.357925,95.295555 141.479401,99.190269 147.030731,102.323288 
	C152.630722,105.483765 158.714401,105.984428 164.771423,103.061378 
	C176.903336,97.206673 182.255768,76.612427 174.494934,65.578568 
	C172.422760,62.632469 172.017441,62.511181 167.930069,63.756248 
	C168.492996,64.455276 169.026657,65.063232 169.500061,65.714951 
	C172.072830,69.256859 173.002563,72.881149 169.977737,76.669960 
	C167.023026,80.370972 162.995316,81.393227 158.368591,79.051590 
	C155.751312,77.726952 153.309799,75.860771 151.169449,73.836388 
	C148.394867,71.212120 146.068497,68.121193 143.425781,65.348778 
	C138.130081,59.793194 135.328598,59.530571 128.466949,63.136299 
	C127.239532,63.781292 125.067070,63.740715 123.835403,63.078480 
	C117.372841,59.603737 113.982742,59.944695 108.793976,65.369423 
	C106.032852,68.256104 103.793053,71.724426 100.740807,74.226082 
	C97.748199,76.678871 94.191795,79.241806 90.563416,79.849617 
	C88.003273,80.278473 84.081802,78.186523 82.315048,75.980896 
	C80.889000,74.200592 81.511208,70.545380 81.751083,67.767387 
	C81.864586,66.452957 83.209259,65.244835 84.521370,63.826378 
	C84.347725,63.529369 84.174072,63.232365 83.275826,62.575748 
	C78.691986,62.628628 76.978874,65.939995 75.955780,69.528900 
	C73.849243,76.918396 73.886703,84.310005 77.046570,91.478142 
	C82.503410,103.856941 93.473839,107.968422 105.741730,102.154945 
	C108.581787,100.809105 111.250664,99.102036 114.443344,97.860115 
z"/>
<path fill="#030303" opacity="1.000000" stroke="none" 
	d="
M83.996124,63.988552 
	C83.209259,65.244835 81.864586,66.452957 81.751083,67.767387 
	C81.511208,70.545380 80.889000,74.200592 82.315048,75.980896 
	C84.081802,78.186523 88.003273,80.278473 90.563416,79.849617 
	C94.191795,79.241806 97.748199,76.678871 100.740807,74.226082 
	C103.793053,71.724426 106.032852,68.256104 108.793976,65.369423 
	C113.982742,59.944695 117.372841,59.603737 123.835403,63.078480 
	C125.067070,63.740715 127.239532,63.781292 128.466949,63.136299 
	C135.328598,59.530571 138.130081,59.793194 143.425781,65.348778 
	C146.068497,68.121193 148.394867,71.212120 151.169449,73.836388 
	C153.309799,75.860771 155.751312,77.726952 158.368591,79.051590 
	C162.995316,81.393227 167.023026,80.370972 169.977737,76.669960 
	C173.002563,72.881149 172.072830,69.256859 169.500061,65.714951 
	C169.026657,65.063232 168.492996,64.455276 167.930069,63.756248 
	C172.017441,62.511181 172.422760,62.632469 174.494934,65.578568 
	C182.255768,76.612427 176.903336,97.206673 164.771423,103.061378 
	C158.714401,105.984428 152.630722,105.483765 147.030731,102.323288 
	C141.479401,99.190269 136.357925,95.295555 130.606323,91.438797 
	C131.159805,92.589882 131.442825,93.595871 132.039261,94.355904 
	C140.357681,104.956146 151.441467,108.269897 164.450089,106.765633 
	C165.920578,106.595596 168.298370,107.112984 168.948929,108.139565 
	C174.325302,116.623390 175.994980,136.792435 169.705246,144.500015 
	C169.073608,144.054306 168.429657,143.599915 167.469482,142.922363 
	C166.503677,153.495346 163.305099,163.187057 155.111206,169.044693 
	C150.315826,172.472778 146.688705,176.802399 142.358231,180.495514 
	C139.505814,182.928146 137.829987,186.740448 134.812912,191.116074 
	C128.163788,190.888672 120.461197,188.084839 113.369339,183.618240 
	C110.298782,181.684357 107.584358,179.152634 104.839439,176.742935 
	C101.903816,174.165787 99.034286,171.376465 96.266464,168.778671 
	C92.341721,165.095016 90.345596,159.102539 88.258423,153.807739 
	C86.950714,150.490280 86.988899,146.642303 86.613983,144.249817 
	C84.798027,142.485062 83.345703,141.677902 82.819016,140.467865 
	C77.850166,129.051910 79.766479,117.703163 83.512192,105.919930 
	C94.707726,106.985474 106.115944,108.138985 115.294716,98.360413 
	C116.228271,97.808739 116.812897,97.620888 117.397530,97.433029 
	C117.109978,96.993500 116.646492,96.141792 116.561974,96.177887 
	C115.672638,96.557503 114.843834,97.078926 113.998314,97.561188 
	C111.250664,99.102036 108.581787,100.809105 105.741730,102.154945 
	C93.473839,107.968422 82.503410,103.856941 77.046570,91.478142 
	C73.886703,84.310005 73.849243,76.918396 75.955780,69.528900 
	C76.978874,65.939995 78.691986,62.628628 83.636757,63.018860 
	C83.997169,63.637497 83.996651,63.813026 83.996124,63.988552 
M97.308624,152.154099 
	C99.458115,156.798157 101.276016,161.634613 103.833359,166.042023 
	C107.858765,172.979553 113.415840,178.518188 121.531715,180.340775 
	C124.691254,181.050339 128.143433,180.456757 131.462326,180.456757 
	C111.589790,175.752487 102.959221,160.619949 95.109505,144.235825 
	C95.765625,146.624908 96.421753,149.013977 97.308624,152.154099 
M167.499008,125.942390 
	C167.115662,124.608414 166.732315,123.274429 166.226807,121.515343 
	C165.092850,127.775490 164.117432,133.160431 163.148682,138.508606 
	C166.913086,135.602249 167.735992,131.374908 167.499008,125.942390 
M121.131027,93.241943 
	C121.918228,91.798424 122.705437,90.354897 123.629837,88.659775 
	C119.698975,90.493736 119.698975,90.493736 121.131027,93.241943 
M128.752441,86.953133 
	C128.225632,87.045769 127.698822,87.138405 127.172012,87.231049 
	C127.607002,87.776253 128.041992,88.321457 128.476974,88.866661 
	C128.745804,88.335449 129.014633,87.804230 128.752441,86.953133 
M130.606064,90.102493 
	C130.199356,90.227722 129.792664,90.352943 129.385956,90.478180 
	C129.491348,90.694649 129.619873,91.105232 129.698395,91.095886 
	C130.184662,91.037994 130.659668,90.885704 130.606064,90.102493 
M125.591331,84.518044 
	C125.591331,84.518044 125.476601,84.587563 125.591331,84.518044 
z"/>
<path fill="#040404" opacity="1.000000" stroke="none" 
	d="
M114.220825,97.710648 
	C114.843834,97.078926 115.672638,96.557503 116.561974,96.177887 
	C116.646492,96.141792 117.109978,96.993500 117.397530,97.433029 
	C116.812897,97.620888 116.228271,97.808739 115.300232,98.005409 
	C114.785660,97.962845 114.614502,97.911476 114.220825,97.710648 
z"/>
<path fill="#040404" opacity="1.000000" stroke="none" 
	d="
M84.258743,63.907463 
	C83.996651,63.813026 83.997169,63.637497 83.999054,63.198666 
	C84.174072,63.232365 84.347725,63.529369 84.258743,63.907463 
z"/>
<path fill="#EEEEEE" opacity="1.000000" stroke="none" 
	d="
M97.193253,151.778580 
	C96.421753,149.013977 95.765625,146.624908 95.109505,144.235825 
	C102.959221,160.619949 111.589790,175.752487 131.462326,180.456757 
	C128.143433,180.456757 124.691254,181.050339 121.531715,180.340775 
	C113.415840,178.518188 107.858765,172.979553 103.833359,166.042023 
	C101.276016,161.634613 99.458115,156.798157 97.193253,151.778580 
z"/>
<path fill="#D4D4D4" opacity="1.000000" stroke="none" 
	d="
M167.571594,126.356339 
	C167.735992,131.374908 166.913086,135.602249 163.148682,138.508606 
	C164.117432,133.160431 165.092850,127.775490 166.226807,121.515343 
	C166.732315,123.274429 167.115662,124.608414 167.571594,126.356339 
z"/>
<path fill="#040404" opacity="1.000000" stroke="none" 
	d="
M120.874611,93.424812 
	C119.698975,90.493736 119.698975,90.493736 123.629837,88.659775 
	C122.705437,90.354897 121.918228,91.798424 120.874611,93.424812 
z"/>
<path fill="#040404" opacity="1.000000" stroke="none" 
	d="
M129.017944,87.113068 
	C129.014633,87.804230 128.745804,88.335449 128.476974,88.866661 
	C128.041992,88.321457 127.607002,87.776253 127.172012,87.231049 
	C127.698822,87.138405 128.225632,87.045769 129.017944,87.113068 
z"/>
<path fill="#FFFFFF" opacity="1.000000" stroke="none" 
	d="
M130.872253,90.433632 
	C130.659668,90.885704 130.184662,91.037994 129.698395,91.095886 
	C129.619873,91.105232 129.491348,90.694649 129.385956,90.478180 
	C129.792664,90.352943 130.199356,90.227722 130.872253,90.433632 
z"/>
<path fill="#040404" opacity="1.000000" stroke="none" 
	d="
M125.533966,84.552803 
	C125.476601,84.587563 125.591331,84.518044 125.533966,84.552803 
z"/>
</svg>