<svg version="1.1" id="Layer_1" xmlns="http://www.w3.org/2000/svg" xmlns:xlink="http://www.w3.org/1999/xlink" x="0px" y="0px"
	 width="100%" viewBox="0 0 250 250" enable-background="new 0 0 250 250" xml:space="preserve">
<path fill="#FFFFFF" opacity="1.000000" stroke="none" 
	d="
M119.000000,251.000000 
	C80.500000,251.000000 42.499859,250.956482 4.500288,251.084015 
	C1.516716,251.094025 0.914228,250.482162 0.918009,247.499893 
	C1.020706,166.500031 1.020702,85.499992 0.918015,4.500126 
	C0.914234,1.517932 1.517764,0.914224 4.500082,0.918005 
	C85.499954,1.020706 166.500000,1.020701 247.499863,0.918018 
	C250.482025,0.914237 251.085800,1.517717 251.082016,4.500067 
	C250.979309,85.499939 250.979294,166.499985 251.081970,247.499847 
	C251.085754,250.481979 250.483215,251.092224 247.499802,251.083664 
	C204.833466,250.961136 162.166687,251.000000 119.000000,251.000000 
z"/>
<path fill="#050505" opacity="1.000000" stroke="none" 
	d="
M188.689728,182.217865 
	C190.459274,165.891327 188.168671,149.806793 186.867157,133.744217 
	C186.274292,126.427368 177.894577,121.092743 169.631943,121.949829 
	C157.500839,123.208199 145.402725,123.946892 133.280518,122.054390 
	C126.749420,121.034760 120.621506,118.939133 115.769554,114.283195 
	C112.640358,111.280418 109.746056,111.298683 106.496880,113.833473 
	C101.905037,117.415710 97.332596,121.027390 92.643227,124.478889 
	C86.576050,128.944473 80.072723,132.582321 72.618950,134.246796 
	C71.138443,134.577408 69.799843,134.912018 69.921097,137.049896 
	C70.727051,151.259781 65.572083,164.975098 66.359634,179.197479 
	C66.482742,181.420715 66.376846,183.656616 65.939476,185.968033 
	C61.770611,179.124634 58.264408,172.072418 57.056400,164.159866 
	C55.926804,156.760925 55.033592,149.319931 54.274277,141.873184 
	C53.946198,138.655655 52.840984,136.277771 50.086395,134.416794 
	C47.273529,132.516434 44.875057,130.144241 48.748627,126.871490 
	C48.871845,126.767380 49.029224,126.603859 49.029266,126.468010 
	C49.032894,113.941307 61.258839,109.330597 66.292870,100.018417 
	C67.746269,97.329857 69.992996,94.462212 73.887749,94.125107 
	C75.580490,93.978584 75.756607,91.965660 76.480202,90.730576 
	C79.937408,84.829597 83.723534,79.322495 90.843010,77.359833 
	C91.310081,77.231071 91.766220,76.948906 92.147560,76.639610 
	C100.849762,69.581398 111.685883,68.003120 122.038162,66.187996 
	C142.556152,62.590443 160.363525,67.709541 172.740372,85.864113 
	C176.341995,91.147049 181.028122,94.607826 187.489014,95.443573 
	C188.314285,95.550331 188.267853,95.689285 188.197891,97.412201 
	C188.157349,98.410843 188.925507,98.681961 189.705215,99.025337 
	C191.221161,99.692947 192.839935,100.281433 194.131577,101.273262 
	C197.235977,103.657082 200.452286,105.396904 200.404373,110.706757 
	C200.361618,115.444481 203.190308,120.172173 204.524506,124.967545 
	C206.113922,130.680237 206.366470,136.371841 204.254715,142.134384 
	C203.004120,145.546967 202.139832,149.175140 201.656143,152.780731 
	C200.245010,163.299744 193.013916,171.381882 189.989929,181.587952 
	C189.658218,182.088135 189.388870,182.226227 188.689728,182.217865 
z"/>
<path fill="#6F6F6F" opacity="1.000000" stroke="none" 
	d="
M188.098816,182.377777 
	C188.539154,182.068329 188.818329,182.065247 189.512543,182.006104 
	C190.156540,183.052338 189.795425,184.010208 188.689713,184.155838 
	C187.847504,184.266739 187.963608,183.307983 188.098816,182.377777 
z"/>
<path fill="#F1F1F1" opacity="1.000000" stroke="none" 
	d="
M136.795471,84.049576 
	C143.905106,88.804192 147.628876,95.239967 148.766220,103.535301 
	C136.350204,83.181305 117.978104,85.032845 98.749641,89.537735 
	C110.645744,82.743553 122.524208,76.514854 136.795471,84.049576 
z"/>
<path fill="#F1F1F1" opacity="1.000000" stroke="none" 
	d="
M119.864861,106.313766 
	C109.349297,103.207512 99.638023,105.652252 90.026176,109.328529 
	C87.089706,110.451660 84.061722,111.335541 80.709450,112.447525 
	C80.001541,112.528221 79.659821,112.490395 78.881668,112.177811 
	C83.707260,109.155266 89.043091,106.534737 94.173439,103.559830 
	C95.294762,102.909615 99.303741,103.307259 96.649292,99.668823 
	C96.076256,98.883362 97.784050,99.113747 98.401558,98.893761 
	C107.076393,95.803276 113.835411,99.418854 120.083069,105.479691 
	C120.204185,105.796738 120.095406,106.258324 119.864861,106.313766 
z"/>
<path fill="#E9E9E9" opacity="1.000000" stroke="none" 
	d="
M89.536888,117.958450 
	C84.579163,123.731422 78.030663,127.691711 70.517624,130.065460 
	C66.019363,131.486679 62.023758,130.832138 58.570583,126.877090 
	C58.336491,126.370163 58.325481,126.126503 58.678871,125.915543 
	C70.163132,127.449905 79.506523,122.411186 89.536888,117.958450 
z"/>
<path fill="#EAEAEA" opacity="1.000000" stroke="none" 
	d="
M156.666351,90.474220 
	C161.605026,98.443695 160.954910,104.203697 154.063202,109.593323 
	C157.923752,99.476891 153.797302,91.901306 148.240326,84.507217 
	C151.895752,85.239937 154.182312,87.689804 156.666351,90.474220 
z"/>
<path fill="#EAEAEA" opacity="1.000000" stroke="none" 
	d="
M159.097549,109.885384 
	C160.022934,107.758926 160.556534,105.585579 161.934021,104.363258 
	C163.028595,103.391991 161.394379,98.396019 165.562073,101.518944 
	C166.342255,99.447556 167.122452,97.376175 167.919357,95.260399 
	C172.317322,100.392654 167.630859,108.232208 159.097549,109.885384 
z"/>
<path fill="#EAEAEA" opacity="1.000000" stroke="none" 
	d="
M82.167511,117.536659 
	C78.959732,119.306953 75.986435,120.755623 72.929024,121.997154 
	C69.598145,123.349724 66.471321,122.924522 62.448669,119.243134 
	C70.009903,121.074272 75.039917,116.337456 81.598572,116.387161 
	C82.142830,116.555420 82.253883,116.839600 82.167511,117.536659 
z"/>
<path fill="#E1E1E1" opacity="1.000000" stroke="none" 
	d="
M185.149902,103.878876 
	C187.182419,104.315941 188.839233,104.668571 189.251526,106.959465 
	C186.162231,107.317932 183.422455,106.014374 180.593292,105.431396 
	C179.482895,105.202583 177.392227,105.054070 178.355347,103.141640 
	C179.068405,101.725769 180.724976,101.289085 182.026535,102.916039 
	C182.761612,103.834885 183.767685,103.734062 185.149902,103.878876 
z"/>
<path fill="#999999" opacity="1.000000" stroke="none" 
	d="
M78.155792,111.927338 
	C78.763290,112.008675 79.081345,112.114250 79.871323,112.392952 
	C79.400146,112.834747 78.134628,114.402931 78.155792,111.927338 
z"/>
<path fill="#9A9A9A" opacity="1.000000" stroke="none" 
	d="
M82.282425,117.945847 
	C81.987495,117.670090 82.004906,117.390640 82.027054,116.691216 
	C82.613304,116.258827 83.591171,116.042160 83.708130,116.269127 
	C84.230499,117.282845 83.079041,117.435303 82.282425,117.945847 
z"/>
<path fill="#E9E9E9" opacity="1.000000" stroke="none" 
	d="
M58.527256,126.453506 
	C58.049557,126.155701 57.080902,126.048286 57.531078,125.253288 
	C57.613373,125.107956 58.376076,125.347923 58.933983,125.679138 
	C59.043274,125.948242 58.707008,126.293182 58.527256,126.453506 
z"/>
<path fill="#F1F1F1" opacity="1.000000" stroke="none" 
	d="
M120.061432,105.939568 
	C120.422966,106.085396 120.641754,106.374046 120.860535,106.662704 
	C120.580856,106.708237 120.301178,106.753769 119.827911,106.584251 
	C119.634315,106.369202 119.918671,106.082397 120.061432,105.939568 
z"/>
<path fill="#E9E9E9" opacity="1.000000" stroke="none" 
	d="
M89.787308,117.794189 
	C90.000191,117.547020 90.318405,117.400703 90.636620,117.254379 
	C90.629623,117.488480 90.622627,117.722588 90.359055,118.027130 
	C90.102493,118.097572 89.892639,117.895035 89.787308,117.794189 
z"/>
</svg>