<svg version="1.1" id="Layer_1" xmlns="http://www.w3.org/2000/svg" xmlns:xlink="http://www.w3.org/1999/xlink" x="0px" y="0px"
	 width="100%" viewBox="0 0 250 250" enable-background="new 0 0 250 250" xml:space="preserve">
<path fill="#FEFEFE" opacity="1.000000" stroke="none" 
	d="
M148.000000,251.000000 
	C99.833336,251.000000 52.166584,250.965103 4.500215,251.083282 
	C1.517223,251.090668 0.914226,250.482208 0.918007,247.499908 
	C1.020705,166.500046 1.020703,85.500000 0.918015,4.500127 
	C0.914235,1.517938 1.517758,0.914224 4.500080,0.918005 
	C85.499947,1.020706 166.499985,1.020701 247.499847,0.918020 
	C250.481995,0.914239 251.085800,1.517689 251.082016,4.500065 
	C250.979309,85.499939 250.979294,166.499985 251.081970,247.499847 
	C251.085754,250.481949 250.483902,251.096725 247.499710,251.084564 
	C214.500244,250.950134 181.500015,251.000000 148.000000,251.000000 
z"/>
<path fill="#030303" opacity="1.000000" stroke="none" 
	d="
M133.297607,148.319275 
	C139.733429,157.999359 149.115112,161.024292 160.099915,159.594727 
	C162.941864,159.224869 164.378662,159.695160 165.450027,162.319336 
	C168.759720,170.426025 169.607391,178.712860 167.330322,187.177429 
	C166.903534,188.763901 167.422821,191.807434 163.770966,190.994064 
	C162.697372,190.754944 163.134766,192.515884 162.988510,193.354996 
	C161.697418,200.762512 159.178070,208.093811 153.016235,212.256210 
	C148.485062,215.317078 145.470001,219.640625 141.188232,222.728470 
	C138.355865,224.771088 136.596954,227.492920 138.203384,231.568344 
	C125.386688,230.058838 114.786362,225.388977 107.147194,215.249603 
	C105.233681,212.709839 101.737526,212.679214 100.044846,209.654587 
	C97.041183,204.287399 97.005493,197.990646 94.637947,192.765045 
	C92.473328,187.987366 89.374031,183.689056 89.182320,178.238831 
	C89.083595,175.432220 89.215889,172.573990 89.641762,169.800186 
	C91.223404,159.498779 91.284798,159.552078 101.236656,159.703613 
	C103.209839,159.733658 105.190323,159.285080 107.559341,158.949677 
	C111.479424,156.178833 116.198586,155.423691 119.377136,151.623245 
	C120.021896,150.965439 120.420120,150.515976 120.634094,149.627563 
	C120.917534,149.150558 121.114815,148.956375 121.333763,148.785461 
	C121.549011,148.617447 121.471786,148.671402 120.914734,149.160614 
	C120.445107,149.896271 120.374924,150.516495 119.755951,151.222107 
	C115.845421,154.327866 112.122314,157.121063 106.903259,157.662811 
	C98.660263,159.066360 92.379509,156.578262 88.279343,149.608765 
	C83.775040,141.952286 83.341721,133.884628 86.899742,125.740448 
	C87.927071,123.388908 89.828575,121.866997 92.720146,122.270432 
	C93.314651,124.191788 91.655937,124.709976 91.075790,125.753105 
	C89.491158,128.602295 89.057983,131.364182 91.230476,134.096313 
	C93.408974,136.835999 96.169685,137.958984 99.613594,136.915680 
	C102.723671,135.973511 105.243729,134.097046 107.393272,131.718445 
	C109.288612,129.621124 111.061882,127.412544 112.978043,125.335175 
	C117.813789,120.092560 120.287117,119.542450 126.379227,122.992432 
	C128.268631,124.062408 129.353592,123.553345 130.776169,122.580818 
	C135.274185,119.505844 139.208176,120.444550 142.689316,124.353523 
	C144.790466,126.712914 146.901138,129.063873 149.014587,131.412247 
	C151.041367,133.664322 153.368118,135.516220 156.216705,136.624237 
	C159.719620,137.986801 162.757965,137.242462 165.225891,134.424988 
	C167.671646,131.632782 167.345520,128.727844 165.583832,125.684631 
	C165.051285,124.764702 162.891327,123.870193 164.744293,122.562683 
	C165.919510,121.733414 167.278961,122.648880 168.265686,123.637886 
	C168.614014,123.987038 168.900955,124.400635 169.195160,124.800087 
	C174.087585,131.442810 172.734848,145.099899 166.474594,152.297470 
	C160.719757,158.913956 152.911804,159.840302 143.874420,154.973862 
	C140.488495,153.150604 137.393295,150.935318 134.416351,148.017181 
	C133.270981,147.582886 132.654053,147.022110 132.015732,146.004272 
	C131.727722,145.549896 131.626236,145.358521 131.344254,144.894775 
	C130.208252,144.033676 129.701279,142.788345 128.281891,142.705109 
	C128.493011,143.871704 129.776138,143.417587 130.504608,144.278305 
	C131.119736,144.749878 131.399963,145.081360 131.796967,145.737289 
	C132.474319,146.708893 132.962952,147.415878 133.297607,148.319275 
z"/>
<path fill="#060606" opacity="1.000000" stroke="none" 
	d="
M80.697342,94.002693 
	C80.308319,100.715073 80.016495,106.996239 79.671936,114.412331 
	C76.408882,109.035179 74.241226,104.191032 73.106682,98.980698 
	C72.117897,94.439697 71.525375,89.798073 71.007416,85.172951 
	C70.496414,80.610008 71.207848,75.685623 66.023590,72.991348 
	C65.366661,72.649940 64.671700,70.868355 64.973137,70.435303 
	C67.418518,66.922287 66.368195,61.879223 69.794533,58.960438 
	C73.778061,55.566994 76.266258,50.853271 80.008560,47.424294 
	C84.466072,43.339996 88.209824,38.733856 92.253166,34.329468 
	C96.871132,29.299141 103.512489,25.781284 109.613739,24.275719 
	C120.711685,21.537148 132.188782,18.406788 144.069946,22.781700 
	C153.086258,26.101711 158.950455,32.481041 164.447510,39.653934 
	C165.238663,40.686264 165.654755,42.151035 167.251511,42.199280 
	C172.601013,42.360889 175.262802,47.074780 179.358871,49.365437 
	C181.627167,50.633938 183.699646,52.518723 182.894440,55.769375 
	C182.789215,56.194202 183.052078,56.756676 183.255722,57.204826 
	C190.552917,73.262978 185.374649,87.940155 178.322464,102.440140 
	C176.901749,105.361259 175.749268,108.412849 174.126785,111.391243 
	C174.987045,100.176094 173.693298,89.069351 173.097488,77.933907 
	C172.571518,68.103340 167.131104,63.566357 157.477402,64.647469 
	C148.361862,65.668304 139.215881,65.983200 130.106369,64.308624 
	C125.591263,63.478630 121.392677,61.894947 118.059296,58.716923 
	C115.265930,56.053753 112.806137,56.527504 110.133720,58.686016 
	C107.545052,60.776871 104.978348,62.907047 102.269653,64.833916 
	C99.293770,66.950844 96.390259,69.974785 93.062996,70.639107 
	C83.683136,72.511902 81.413452,78.300827 82.076881,86.742889 
	C82.252045,88.971733 81.253899,91.292778 80.697342,94.002693 
z"/>
<path fill="#D3D3D3" opacity="1.000000" stroke="none" 
	d="
M119.693481,150.999603 
	C118.120232,156.241989 113.076263,157.102539 108.321098,158.873718 
	C107.658501,158.566116 107.365761,158.290070 106.812683,157.848526 
	C111.104263,156.041092 115.107323,153.343246 119.693481,150.999603 
z"/>
<path fill="#E9E9E9" opacity="1.000000" stroke="none" 
	d="
M102.873802,191.695953 
	C105.328499,196.006546 107.008675,201.018356 110.052292,205.394592 
	C115.636101,213.423264 122.487457,219.596817 132.856064,221.134949 
	C127.806122,223.584305 122.055405,222.585220 116.587769,218.117783 
	C108.943077,211.871536 105.081436,203.374924 102.798820,193.608337 
	C102.693939,192.870697 102.651749,192.516205 102.873802,191.695953 
z"/>
<path fill="#CCCCCC" opacity="1.000000" stroke="none" 
	d="
M130.797882,145.180695 
	C129.186356,143.906158 127.891449,143.035370 126.037857,144.291412 
	C128.168320,139.779541 128.168320,139.779541 131.862564,144.682220 
	C131.680023,145.118103 131.429474,145.214447 130.797882,145.180695 
z"/>
<path fill="#E4E4E4" opacity="1.000000" stroke="none" 
	d="
M160.722229,183.052750 
	C161.181442,179.714203 162.328903,176.788528 161.470383,173.295334 
	C161.634583,172.803238 161.903137,172.726669 162.518555,172.884979 
	C163.306290,176.563919 163.963409,180.023331 161.961578,183.626236 
	C161.246216,184.063232 160.855789,183.866165 160.722229,183.052750 
z"/>
<path fill="#EFEFEF" opacity="1.000000" stroke="none" 
	d="
M106.551369,188.814819 
	C107.571045,190.760178 108.343010,192.482224 109.232117,194.541473 
	C109.123886,195.055176 108.898506,195.231659 108.284943,195.224609 
	C106.204262,193.666504 106.056480,191.499817 105.155167,189.370605 
	C105.448448,188.661285 105.838783,188.527206 106.551369,188.814819 
z"/>
<path fill="#040404" opacity="1.000000" stroke="none" 
	d="
M121.373291,149.027374 
	C121.432465,148.186417 121.848404,147.273834 123.009155,147.388641 
	C123.220078,147.409500 123.577652,147.784485 123.560997,147.968185 
	C123.461082,149.070084 122.501724,148.885254 121.373291,149.027374 
z"/>
<path fill="#CCCCCC" opacity="1.000000" stroke="none" 
	d="
M106.771561,188.701569 
	C106.431503,189.027390 106.063927,189.016647 105.420723,189.016373 
	C105.226562,188.001389 103.584099,186.704193 104.750488,186.181335 
	C106.236008,185.515457 106.006721,187.643326 106.771561,188.701569 
z"/>
<path fill="#939393" opacity="1.000000" stroke="none" 
	d="
M103.162155,190.927490 
	C103.107300,191.569992 103.076584,191.909805 102.890984,192.737396 
	C101.611549,192.419830 101.622833,191.066376 102.039200,190.190598 
	C102.811501,188.566147 102.870667,190.226807 103.162155,190.927490 
z"/>
<path fill="#6B6B6B" opacity="1.000000" stroke="none" 
	d="
M162.917938,172.825104 
	C162.609985,173.114426 162.354553,173.108994 161.732574,172.991684 
	C160.885406,172.344055 160.863998,171.581100 161.414352,171.349884 
	C162.325562,170.967087 162.690750,171.803772 162.917938,172.825104 
z"/>
<path fill="#FEFEFE" opacity="1.000000" stroke="none" 
	d="
M133.349274,148.406250 
	C132.613113,148.029694 132.142319,147.500153 131.541901,146.732513 
	C131.499893,146.301453 131.587509,146.108490 131.980927,145.828751 
	C132.843246,146.268234 133.399750,146.794479 134.031097,147.604095 
	C133.942169,148.009384 133.778381,148.131332 133.349274,148.406250 
z"/>
<path fill="#E9E9E9" opacity="1.000000" stroke="none" 
	d="
M107.957764,195.338531 
	C108.139183,195.017029 108.381599,194.992981 108.986641,194.923813 
	C109.742752,195.244873 110.136246,195.611053 110.674416,196.212341 
	C110.723640,196.676376 110.628197,196.905289 110.163101,197.176224 
	C109.201904,196.690826 108.610336,196.163422 107.957764,195.338531 
z"/>
<path fill="#D3D3D3" opacity="1.000000" stroke="none" 
	d="
M160.677246,185.190674 
	C160.173615,186.174286 159.708466,187.509262 158.647522,186.823151 
	C157.579498,186.132462 159.167770,185.746719 159.514801,184.955231 
	C160.055374,184.816574 160.308060,184.823227 160.677246,185.190674 
z"/>
<path fill="#D3D3D3" opacity="1.000000" stroke="none" 
	d="
M160.601929,182.881866 
	C161.021912,183.014954 161.187943,183.324341 161.567322,183.789658 
	C161.563446,184.363998 161.346207,184.782394 160.961380,185.376129 
	C160.623413,185.434814 160.453033,185.318146 160.042679,185.005707 
	C159.984451,184.226013 160.166214,183.642090 160.601929,182.881866 
z"/>
<path fill="#040404" opacity="1.000000" stroke="none" 
	d="
M120.018051,150.959442 
	C120.181664,150.383957 120.328964,149.844574 120.718536,149.151215 
	C120.960815,148.997238 121.057961,149.058929 121.101814,149.096100 
	C120.943390,149.641953 120.741112,150.150604 120.303299,150.805679 
	C120.067764,150.952087 120.001732,150.995560 120.018051,150.959442 
z"/>
<path fill="#E9E9E9" opacity="1.000000" stroke="none" 
	d="
M110.554970,196.629913 
	C111.282585,196.972900 112.545288,197.179321 111.772491,198.224548 
	C111.178185,199.028351 110.712990,197.943069 109.972961,197.538834 
	C109.959259,197.082932 110.125061,196.947632 110.554970,196.629913 
z"/>
<path fill="#FEFEFE" opacity="1.000000" stroke="none" 
	d="
M130.569000,145.302277 
	C130.669495,145.066071 130.922180,145.081512 131.552704,145.059357 
	C131.930557,145.021774 132.239304,145.317276 132.263031,145.529633 
	C132.143478,145.870117 132.000198,145.998230 131.634598,146.310394 
	C131.181915,146.180908 130.951553,145.867416 130.569000,145.302277 
z"/>
<path fill="#EFEFEF" opacity="1.000000" stroke="none" 
	d="
M106.358696,39.203484 
	C112.326393,34.319771 119.357552,31.981846 127.228752,32.897511 
	C135.205109,33.825401 141.492905,40.299847 142.808182,48.626087 
	C142.526123,48.626087 142.087784,48.739227 141.997864,48.609982 
	C134.527802,37.872952 124.103493,35.717400 112.051323,38.252663 
	C110.263214,38.628799 108.474670,39.002819 106.358696,39.203484 
z"/>
<path fill="#ECECEC" opacity="1.000000" stroke="none" 
	d="
M104.452988,47.629173 
	C110.752151,44.370819 116.799454,46.241875 121.529404,53.138229 
	C110.572510,48.141335 101.343147,54.862797 91.398354,55.970181 
	C95.658966,52.862442 100.769035,51.403618 104.452988,47.629173 
z"/>
<path fill="#E8E8E8" opacity="1.000000" stroke="none" 
	d="
M93.957962,64.506287 
	C90.789459,67.711868 87.070343,69.575249 83.060310,70.701599 
	C79.350632,71.743599 75.833122,71.461067 73.320206,67.019783 
	C80.311172,68.903732 86.088829,66.379684 92.234062,63.854019 
	C93.146057,63.430477 93.600189,63.532932 93.957962,64.506287 
z"/>
<path fill="#E4E4E4" opacity="1.000000" stroke="none" 
	d="
M151.915253,47.818520 
	C151.463425,50.472851 150.670425,52.511066 147.761948,54.779362 
	C149.674255,47.029697 147.416641,41.375858 142.785339,36.295361 
	C147.999832,37.071396 151.110504,40.990166 151.915253,47.818520 
z"/>
<path fill="#DEDEDE" opacity="1.000000" stroke="none" 
	d="
M157.043152,46.757584 
	C157.367874,45.639519 157.636627,44.883854 157.951172,43.999458 
	C161.166611,48.346798 160.227692,50.062130 151.267181,56.110481 
	C152.165619,52.086857 153.647461,49.042400 157.043152,46.757584 
z"/>
<path fill="#E7E7E7" opacity="1.000000" stroke="none" 
	d="
M91.156311,61.483040 
	C86.873375,63.650589 82.950478,66.787254 77.091507,62.931675 
	C82.465469,63.212799 85.997276,60.492550 90.607384,60.278305 
	C91.146515,60.491104 91.253250,60.779861 91.156311,61.483040 
z"/>
<path fill="#CCCCCC" opacity="1.000000" stroke="none" 
	d="
M166.490540,49.509483 
	C169.467880,49.944153 172.382828,50.124313 175.348068,53.471313 
	C171.398895,52.057312 167.803360,53.626911 166.490540,49.509483 
z"/>
<path fill="#D3D3D3" opacity="1.000000" stroke="none" 
	d="
M94.311371,64.811111 
	C93.691872,64.626694 93.418335,64.334137 92.866615,63.913055 
	C93.855759,62.834087 95.111565,61.856438 96.892593,61.763771 
	C97.117172,63.699791 95.343590,63.765335 94.311371,64.811111 
z"/>
<path fill="#A4A4A4" opacity="1.000000" stroke="none" 
	d="
M91.245659,61.887222 
	C90.968895,61.615040 90.985153,61.332607 91.020592,60.626266 
	C91.584938,60.210716 92.509552,60.042732 92.609589,60.257973 
	C93.043129,61.190784 92.028458,61.403553 91.245659,61.887222 
z"/>
<path fill="#939393" opacity="1.000000" stroke="none" 
	d="
M103.881966,47.095009 
	C104.160133,47.234787 104.305725,47.422344 104.245216,47.524483 
	C103.641365,47.994911 103.114616,48.006561 102.609489,47.553345 
	C102.940926,47.353973 103.272362,47.154602 103.881966,47.095009 
z"/>
<path fill="#EFEFEF" opacity="1.000000" stroke="none" 
	d="
M105.943428,38.959496 
	C105.913216,39.141815 105.930695,39.348103 105.898148,39.546177 
	C105.892532,39.580345 105.674545,39.579628 105.554657,39.595024 
	C105.546677,39.416191 105.538704,39.237354 105.780899,39.043835 
	C106.031067,39.029148 105.974197,38.980682 105.943428,38.959496 
z"/>
</svg>